<svg width="36" height="36" viewBox="0 0 36 36" fill="none" xmlns="http://www.w3.org/2000/svg">
<path d="M8.52083 31.125C7.5539 31.125 6.62657 30.7409 5.94284 30.0572C5.25911 29.3734 4.875 28.4461 4.875 27.4792V2.6875C4.875 2.10734 4.64453 1.55094 4.2343 1.1407C3.82406 0.730468 3.26766 0.5 2.6875 0.5C2.10734 0.5 1.55094 0.730468 1.1407 1.1407C0.730468 1.55094 0.5 2.10734 0.5 2.6875L0.5 27.4792C0.5 29.6064 1.34505 31.6466 2.84925 33.1508C4.35345 34.655 6.39358 35.5 8.52083 35.5H33.3125C33.8927 35.5 34.4491 35.2695 34.8593 34.8593C35.2695 34.4491 35.5 33.8927 35.5 33.3125C35.5 32.7323 35.2695 32.1759 34.8593 31.7657C34.4491 31.3555 33.8927 31.125 33.3125 31.125H8.52083Z" fill="white"/>
<path d="M28.9375 26.75C29.5177 26.75 30.0741 26.5195 30.4843 26.1093C30.8945 25.6991 31.125 25.1427 31.125 24.5625V15.8125C31.125 15.2323 30.8945 14.6759 30.4843 14.2657C30.0741 13.8555 29.5177 13.625 28.9375 13.625C28.3573 13.625 27.8009 13.8555 27.3907 14.2657C26.9805 14.6759 26.75 15.2323 26.75 15.8125V24.5625C26.75 25.1427 26.9805 25.6991 27.3907 26.1093C27.8009 26.5195 28.3573 26.75 28.9375 26.75Z" fill="white"/>
<path d="M11.4375 26.75C12.0177 26.75 12.5741 26.5195 12.9843 26.1093C13.3945 25.6991 13.625 25.1427 13.625 24.5625V15.8125C13.625 15.2323 13.3945 14.6759 12.9843 14.2657C12.5741 13.8555 12.0177 13.625 11.4375 13.625C10.8573 13.625 10.3009 13.8555 9.8907 14.2657C9.48047 14.6759 9.25 15.2323 9.25 15.8125V24.5625C9.25 25.1427 9.48047 25.6991 9.8907 26.1093C10.3009 26.5195 10.8573 26.75 11.4375 26.75Z" fill="white"/>
<path d="M20.1875 26.7499C20.7677 26.7499 21.3241 26.5195 21.7343 26.1092C22.1445 25.699 22.375 25.1426 22.375 24.5624V8.52075C22.375 7.94059 22.1445 7.38419 21.7343 6.97396C21.3241 6.56372 20.7677 6.33325 20.1875 6.33325C19.6073 6.33325 19.0509 6.56372 18.6407 6.97396C18.2305 7.38419 18 7.94059 18 8.52075V24.5624C18 25.1426 18.2305 25.699 18.6407 26.1092C19.0509 26.5195 19.6073 26.7499 20.1875 26.7499Z" fill="white"/>
</svg>
