<svg width="600" height="600" viewBox="0 0 600 600" fill="none" xmlns="http://www.w3.org/2000/svg">
<path d="M525.259 156.612H436.957V248.659H525.259V156.612Z" fill="#E0E0E0"/>
<path d="M519.28 156.612H430.978V248.659H519.28V156.612Z" fill="#FAFAFA"/>
<path d="M519.307 248.687H430.95V156.584H519.307V248.687ZM431.005 248.633H519.252V156.64H431.005V248.633Z" fill="#E0E0E0"/>
<path d="M507.409 168.986H442.848V236.286H507.409V168.986Z" fill="white"/>
<path d="M442.848 236.734C442.898 236.794 442.285 237.498 441.254 238.586C440.224 239.675 438.774 241.147 437.15 242.747C435.526 244.348 434.033 245.772 432.932 246.784C431.831 247.795 431.122 248.394 431.066 248.338C431.011 248.281 431.62 247.58 432.65 246.493C433.681 245.405 435.134 243.929 436.764 242.324C438.392 240.72 439.889 239.292 440.989 238.28C442.091 237.268 442.798 236.672 442.848 236.734Z" fill="#E0E0E0"/>
<path d="M507.409 236.568C507.469 236.518 508.174 237.131 509.262 238.16C510.35 239.191 511.823 240.641 513.422 242.264C515.022 243.889 516.448 245.382 517.459 246.482C518.471 247.583 519.07 248.292 519.013 248.348C518.957 248.404 518.257 247.795 517.169 246.764C516.08 245.734 514.604 244.28 513 242.651C511.396 241.022 509.968 239.526 508.956 238.426C507.944 237.325 507.349 236.62 507.409 236.568Z" fill="#E0E0E0"/>
<path d="M507.233 169.165C507.182 169.105 507.796 168.401 508.826 167.312C509.857 166.224 511.306 164.752 512.93 163.152C514.554 161.551 516.048 160.127 517.148 159.114C518.249 158.102 518.958 157.504 519.014 157.56C519.07 157.616 518.461 158.316 517.429 159.404C516.398 160.493 514.945 161.969 513.316 163.573C511.687 165.178 510.191 166.606 509.09 167.617C507.99 168.631 507.284 169.226 507.233 169.165Z" fill="#E0E0E0"/>
<path d="M442.672 169.331C442.612 169.382 441.907 168.769 440.819 167.737C439.73 166.706 438.258 165.257 436.658 163.633C435.057 162.008 433.633 160.516 432.622 159.415C431.61 158.314 431.011 157.604 431.068 157.549C431.124 157.493 431.824 158.102 432.912 159.133C434 160.164 435.476 161.617 437.081 163.247C438.685 164.875 440.113 166.372 441.125 167.472C442.136 168.575 442.732 169.279 442.672 169.331Z" fill="#E0E0E0"/>
<path d="M507.233 236.286C507.228 236.281 507.223 236.171 507.218 235.958C507.215 235.729 507.21 235.42 507.204 235.019C507.197 234.175 507.187 232.962 507.175 231.386C507.16 228.198 507.138 223.56 507.11 217.67C507.079 205.883 507.036 189.091 506.984 168.986L507.233 169.235C488.438 169.246 466.366 169.258 442.854 169.272H442.848L443.134 168.986C443.119 193.688 443.105 216.797 443.093 236.286L442.847 236.041C462.139 236.093 478.204 236.136 489.466 236.166C495.092 236.194 499.519 236.215 502.56 236.23C504.062 236.242 505.219 236.251 506.024 236.258C506.405 236.264 506.7 236.269 506.92 236.273C507.124 236.276 507.228 236.281 507.233 236.286C507.238 236.291 507.142 236.296 506.948 236.3C506.735 236.304 506.449 236.308 506.08 236.315C505.285 236.321 504.144 236.33 502.662 236.344C499.633 236.358 495.226 236.38 489.623 236.407C478.322 236.437 462.205 236.48 442.848 236.533L442.603 236.534V236.288C442.591 216.799 442.578 193.691 442.562 168.989V168.703H442.849H442.855C466.367 168.716 488.44 168.728 507.234 168.74H507.484V168.99C507.431 189.162 507.388 206.009 507.358 217.834C507.329 223.699 507.307 228.319 507.292 231.493C507.28 233.048 507.27 234.246 507.263 235.079C507.257 235.468 507.252 235.768 507.248 235.991C507.242 236.19 507.238 236.291 507.233 236.286Z" fill="#E0E0E0"/>
<path d="M485.9 191.864H464.357V213.408H485.9V191.864Z" fill="#EBEBEB"/>
<path d="M437.291 54.432H355.267V139.934H437.291V54.432Z" fill="#E0E0E0"/>
<path d="M431.735 54.432H349.712V139.934H431.735V54.432Z" fill="#FAFAFA"/>
<path d="M431.76 139.96H349.686V54.4068H431.76V139.96ZM349.738 139.909H431.71V54.4572H349.738V139.909Z" fill="#E0E0E0"/>
<path d="M420.709 65.9256H360.738V128.44H420.709V65.9256Z" fill="white"/>
<path d="M360.738 128.856C360.785 128.912 360.216 129.566 359.258 130.577C358.301 131.587 356.954 132.955 355.446 134.441C353.936 135.928 352.55 137.251 351.528 138.191C350.506 139.13 349.847 139.686 349.795 139.634C349.744 139.582 350.309 138.931 351.268 137.921C352.225 136.91 353.575 135.539 355.088 134.048C356.602 132.558 357.991 131.231 359.014 130.291C360.035 129.353 360.691 128.8 360.738 128.856Z" fill="#E0E0E0"/>
<path d="M420.709 128.702C420.766 128.656 421.42 129.224 422.43 130.182C423.44 131.14 424.808 132.486 426.294 133.994C427.781 135.503 429.104 136.89 430.044 137.912C430.984 138.935 431.539 139.594 431.488 139.645C431.436 139.697 430.784 139.132 429.774 138.174C428.764 137.216 427.392 135.866 425.902 134.353C424.412 132.84 423.085 131.45 422.144 130.428C421.206 129.406 420.653 128.749 420.709 128.702Z" fill="#E0E0E0"/>
<path d="M420.545 66.0924C420.498 66.036 421.067 65.382 422.025 64.3716C422.982 63.3612 424.329 61.9932 425.837 60.5076C427.345 59.0208 428.733 57.6972 429.755 56.7576C430.777 55.818 431.436 55.2624 431.488 55.314C431.539 55.3656 430.973 56.016 430.015 57.0276C429.058 58.038 427.708 59.4096 426.194 60.9C424.681 62.3904 423.292 63.7164 422.269 64.6572C421.248 65.5968 420.592 66.1488 420.545 66.0924Z" fill="#E0E0E0"/>
<path d="M360.574 66.246C360.517 66.294 359.863 65.724 358.853 64.7664C357.842 63.8088 356.474 62.4624 354.989 60.954C353.502 59.4444 352.178 58.0584 351.239 57.036C350.299 56.0136 349.742 55.3548 349.795 55.3032C349.847 55.2516 350.497 55.8168 351.509 56.7744C352.519 57.732 353.891 59.082 355.381 60.5952C356.872 62.1084 358.199 63.498 359.138 64.5204C360.078 65.5428 360.63 66.1992 360.574 66.246Z" fill="#E0E0E0"/>
<path d="M420.545 128.441C420.54 128.436 420.536 128.334 420.532 128.137C420.528 127.924 420.524 127.637 420.518 127.265C420.512 126.481 420.503 125.354 420.492 123.89C420.478 120.929 420.457 116.621 420.432 111.15C420.403 100.201 420.364 84.6036 420.314 65.928L420.546 66.1596C403.087 66.1692 382.585 66.1812 360.745 66.1944H360.739L361.004 65.9292C360.991 88.8744 360.978 110.34 360.967 128.443L360.739 128.215C378.66 128.263 393.582 128.304 404.042 128.332C409.268 128.357 413.381 128.377 416.206 128.39C417.601 128.402 418.675 128.411 419.424 128.417C419.778 128.423 420.052 128.426 420.256 128.43C420.443 128.432 420.541 128.436 420.545 128.441C420.55 128.446 420.46 128.449 420.281 128.454C420.083 128.458 419.818 128.461 419.473 128.467C418.735 128.473 417.676 128.482 416.299 128.494C413.486 128.507 409.392 128.527 404.188 128.554C393.691 128.581 378.72 128.622 360.739 128.67H360.511V128.441C360.5 110.338 360.487 88.872 360.474 65.9268V65.6616H360.739H360.745C382.585 65.6736 403.087 65.6856 420.546 65.6952H420.778V65.9268C420.728 84.6636 420.689 100.313 420.66 111.298C420.634 116.746 420.613 121.037 420.599 123.986C420.587 125.431 420.578 126.544 420.572 127.316C420.566 127.678 420.563 127.957 420.559 128.164C420.553 128.352 420.55 128.444 420.545 128.441Z" fill="#E0E0E0"/>
<path d="M400.729 87.1776H380.718V107.189H400.729V87.1776Z" fill="#EBEBEB"/>
<path d="M79.5444 557.718C77.568 556.024 73.1592 550.654 76.5588 544.406C77.8056 542.117 80.4528 540.984 82.8492 539.975C85.2456 538.966 87.7644 538.088 89.7468 536.402C93.486 533.221 94.518 527.936 96.9996 523.692C99.8484 518.82 105.168 515.17 110.788 515.425C117.223 515.718 122.59 520.974 125.022 526.966C127.454 532.958 127.54 539.612 127.59 546.084C127.618 549.662 127.459 553.697 124.831 556.112C122.41 558.341 118.763 558.368 115.48 558.268C103.758 557.908 92.0352 557.548 80.3136 557.188" fill="#F5F5F5"/>
<path d="M146.804 461.016H54.3216L70.9812 560.352C71.7096 564.691 74.8488 568.034 78.8772 569.196C78.984 569.23 79.0932 569.254 79.2012 569.285C79.476 569.356 79.7424 569.448 80.0244 569.497C80.634 569.623 81.2652 569.688 81.9048 569.713C81.9096 569.744 81.9144 569.778 81.9204 569.808L82.3716 569.736H82.374H123.592C124.367 569.736 125.124 569.657 125.856 569.51C130.723 568.758 134.62 564.851 135.212 559.801L143.243 491.357L143.605 488.635H143.562L146.742 461.53L146.804 461.016ZM129.358 524.38H119.867L120.824 495.551H131.82L129.358 524.38ZM132.742 495.551H141.828L138.445 524.38H130.278L132.742 495.551ZM105.628 556.339L105.05 531.294H118.717L117.886 556.339H105.628ZM90.852 531.294H104.132L104.71 556.339H92.7984L90.852 531.294ZM91.878 556.339H80.7432C79.6848 549.577 78.3084 540.79 76.818 531.294H89.9304L91.878 556.339ZM90.3144 524.38L88.074 495.551H103.309L103.973 524.38H90.3144ZM104.891 524.38L104.227 495.551H119.905L118.948 524.38H104.891ZM104.068 488.636L103.453 461.938H121.021L120.134 488.636H104.068ZM103.15 488.636H87.5364L85.4616 461.938H102.534L103.15 488.636ZM86.616 488.636H70.0968C69.5124 484.949 68.9568 481.458 68.4564 478.319C66.7332 467.525 66.0852 463.465 65.7264 461.939H84.5412L86.616 488.636ZM87.1536 495.551L89.394 524.38H75.7332C75.2736 521.454 74.808 518.496 74.3424 515.534C73.272 508.729 72.1992 501.925 71.1912 495.551H87.1536ZM74.8044 524.38H65.88L61.044 495.551H70.2612C71.67 504.46 73.2324 514.376 74.8044 524.38ZM75.8892 531.294C77.25 539.96 78.588 548.507 79.8144 556.339H71.2392L67.038 531.294H75.8892ZM118.805 556.339L119.636 531.294H128.766L126.626 556.339H118.805ZM121.054 488.636L121.94 461.938H134.692L132.41 488.636H121.054ZM64.8516 461.938C65.2176 463.868 66.906 474.373 69.1668 488.636H59.8848L55.4064 461.938H64.8516ZM134.695 556.339H127.548L129.688 531.294H137.634L134.695 556.339ZM142.639 488.636H133.332L135.613 461.938H145.771L142.639 488.636Z" fill="#E0E0E0"/>
<path d="M506.455 454.586C500.284 451.402 493.016 450.988 486.164 452.12C482.483 452.729 478.645 453.83 476.141 456.595C473.636 459.36 473.161 464.226 476.038 466.602C477.75 468.016 480.138 468.23 482.358 468.205C487.722 468.143 493.674 467.198 497.959 470.425C500.404 472.266 502.031 475.327 504.954 476.233C507.814 477.119 511.04 475.432 512.557 472.85C514.074 470.269 514.124 467.042 513.418 464.134C513.418 464.134 512.672 457.794 506.455 454.586Z" fill="#EBEBEB"/>
<path d="M520.595 427.29C516.821 432.68 509.485 430.895 506.084 427.606C502.684 424.315 501.246 419.548 499.938 415C496.949 404.61 493.934 393.71 496.157 383.131C496.822 379.968 498.004 376.813 500.227 374.467C502.45 372.12 505.868 370.724 508.993 371.55C512.692 372.527 514.991 376.15 516.652 379.595C521.534 389.723 524.12 400.952 524.159 412.196C524.177 417.448 523.558 422.954 520.595 427.29Z" fill="#EBEBEB"/>
<path d="M530.958 435.024C526.86 430.16 526.082 423.067 527.906 416.976C529.73 410.884 533.849 405.701 538.596 401.47C544.162 396.509 550.705 392.648 557.738 390.175C560.507 389.202 563.426 388.434 566.347 388.712C569.268 388.991 572.209 390.485 573.572 393.084C575.587 396.926 573.655 401.586 571.566 405.389C567.886 412.087 563.677 418.495 558.992 424.535C555.224 429.394 550.907 434.186 545.164 436.381C539.42 438.577 533.454 438.318 530.41 434.335" fill="#EBEBEB"/>
<path d="M520.85 508.598C520.78 508.602 520.666 507.73 520.508 506.149C520.334 504.366 520.117 502.128 519.858 499.465C519.547 496.652 519.136 493.306 518.354 489.661C517.576 486.025 516.356 482.086 514.79 478.09C513.169 474.118 511.192 470.507 508.882 467.62C506.587 464.719 503.92 462.62 501.412 461.41C498.912 460.175 496.67 459.673 495.12 459.45C493.558 459.289 492.682 459.167 492.682 459.097C492.68 459.028 493.558 459.016 495.163 459.059C496.753 459.164 499.088 459.568 501.724 460.766C504.367 461.939 507.197 464.07 509.604 467.032C512.03 469.98 514.079 473.67 515.729 477.713C517.322 481.778 518.522 485.76 519.268 489.474C520.009 493.182 520.349 496.566 520.571 499.402C520.783 502.24 520.864 504.539 520.902 506.128C520.937 507.714 520.919 508.595 520.85 508.598Z" fill="#E0E0E0"/>
<path d="M520.389 503.456C520.355 503.454 520.333 503.063 520.324 502.32C520.326 501.466 520.328 500.39 520.332 499.07C520.34 496.25 520.338 492.168 520.188 487.129C519.938 477.049 519.071 466.201 517.394 450.906C515.807 436.524 513.677 419.788 511.428 408.906C510.946 406.432 510.461 404.203 510.002 402.254C509.567 400.3 509.195 398.615 508.835 397.252C508.526 395.969 508.276 394.922 508.075 394.093C507.912 393.367 507.842 392.982 507.876 392.972C507.91 392.963 508.045 393.33 508.271 394.038C508.518 394.856 508.831 395.886 509.214 397.152C509.633 398.503 510.061 400.177 510.551 402.124C511.061 404.065 511.597 406.288 512.125 408.758C514.35 418.619 516.705 432.4 518.397 447.731C520.077 463.057 520.834 477.012 520.901 487.117C520.961 492.17 520.854 496.26 520.724 499.082C520.644 500.402 520.578 501.478 520.526 502.331C520.471 503.069 520.424 503.458 520.389 503.456Z" fill="#E0E0E0"/>
<path d="M520.322 476.54C520.252 476.538 520.265 475.332 520.346 473.146C520.471 470.964 520.771 467.81 521.386 463.948C522.037 460.094 522.947 455.519 524.377 450.547C524.996 448.274 526.453 442.829 529.981 434.69C534.63 423.664 540.944 414.649 546.438 409.066C547.727 407.584 549.162 406.514 550.309 405.467C550.903 404.964 551.428 404.464 551.963 404.068C552.5 403.697 553.001 403.352 553.465 403.032C555.274 401.796 556.286 401.143 556.324 401.202C556.486 401.423 552.274 403.901 546.955 409.56C541.658 415.206 535.519 424.159 530.91 435.092C528.338 441.023 526.546 446.312 525.274 450.804C523.804 455.728 522.828 460.256 522.091 464.071C521.39 467.894 520.985 471.017 520.74 473.178C520.537 475.343 520.392 476.543 520.322 476.54Z" fill="#E0E0E0"/>
<path d="M546.337 524.018L543.641 560.969H496.172L493.476 524.018H546.337Z" fill="#E0E0E0"/>
<path d="M550.922 509.455H487.812V524.02H550.922V509.455Z" fill="#E0E0E0"/>
<path d="M550.922 559.555V563.592H547.957H488.855V559.555H550.922Z" fill="#EBEBEB"/>
<path d="M545.051 570.697L547.957 563.592H491.116L494.507 570.697H545.051Z" fill="#E0E0E0"/>
<path d="M494.357 536.095C494.346 536.104 494.422 536.219 494.578 536.435C494.766 536.684 494.999 536.994 495.287 537.376C495.961 538.238 496.888 539.424 498.052 540.914L498.174 541.072L498.293 540.907C500.03 538.504 502.352 535.292 505.086 531.511H504.695C506.716 534.372 508.967 537.559 511.384 540.982L511.594 541.278L511.829 540.998C514.297 538.062 516.978 534.872 519.761 531.56L519.304 531.554C519.442 531.727 519.59 531.916 519.74 532.103C522.2 535.187 524.581 538.171 526.834 540.995L527.07 541.291L527.288 540.983C529.697 537.576 531.947 534.392 533.981 531.515L533.592 531.533C536.89 535.29 539.687 538.477 541.834 540.923L541.98 541.09L542.092 540.902C543.178 539.077 544.044 537.622 544.672 536.567C544.942 536.096 545.16 535.716 545.334 535.412C545.479 535.148 545.549 535.009 545.537 535.001C545.525 534.994 545.43 535.117 545.261 535.367C545.068 535.658 544.826 536.024 544.528 536.478C543.869 537.514 542.959 538.943 541.819 540.734L542.077 540.714C539.965 538.238 537.212 535.013 533.968 531.21L533.762 530.97L533.578 531.228C531.526 534.094 529.255 537.262 526.826 540.653L527.281 540.641C525.035 537.814 522.66 534.824 520.205 531.736C520.055 531.547 519.906 531.36 519.768 531.187L519.542 530.904L519.311 531.181C516.535 534.499 513.862 537.695 511.4 540.637L511.844 540.655C509.404 537.251 507.13 534.079 505.09 531.233L504.892 530.957L504.698 531.233C502.022 535.055 499.75 538.301 498.048 540.731L498.289 540.724C497.077 539.27 496.114 538.116 495.413 537.275C495.101 536.914 494.848 536.62 494.642 536.383C494.465 536.184 494.368 536.087 494.357 536.095Z" fill="#F5F5F5"/>
<path d="M492.815 523.775C492.815 523.938 504.709 524.07 519.377 524.07C534.05 524.07 545.942 523.938 545.942 523.775C545.942 523.612 534.05 523.48 519.377 523.48C504.709 523.48 492.815 523.613 492.815 523.775Z" fill="#F5F5F5"/>
<path d="M490.417 563.989C490.417 564.152 503.344 564.284 519.286 564.284C535.234 564.284 548.156 564.152 548.156 563.989C548.156 563.826 535.232 563.694 519.286 563.694C503.344 563.694 490.417 563.826 490.417 563.989Z" fill="#F5F5F5"/>
<path d="M240.708 86.3832C240.169 89.892 236.888 92.2992 233.38 91.7604C229.871 91.2216 227.464 87.9408 228.002 84.4332C228.541 80.9244 231.822 78.5172 235.331 79.056C238.84 79.5936 241.247 82.8744 240.708 86.3832Z" fill="#E0E0E0"/>
<path d="M240.112 84.126C239.568 84.4248 236.063 78.57 233.348 70.7232C230.664 62.9028 228.736 56.5716 229.262 56.334C229.862 56.0676 232.78 62.1924 235.448 69.972C238.128 77.7192 240.654 83.8368 240.112 84.126Z" fill="#E0E0E0"/>
<path d="M249.868 53.352C250.235 53.7216 246.496 57.5736 240.169 59.07C237.054 59.8188 234.016 59.6316 231.991 58.9068C229.928 58.2144 229.045 57.0672 229.224 56.8716C229.427 56.5884 230.502 57.156 232.369 57.3756C234.22 57.6348 236.84 57.5724 239.669 56.8956C245.353 55.584 249.47 52.7712 249.868 53.352Z" fill="#E0E0E0"/>
<path d="M261.314 83.4012C260.776 86.9088 257.495 89.3172 253.987 88.7784C250.478 88.2396 248.071 84.9588 248.61 81.4512C249.149 77.9424 252.43 75.5352 255.938 76.074C259.445 76.6128 261.853 79.8936 261.314 83.4012Z" fill="#E0E0E0"/>
<path d="M260.717 81.144C260.173 81.4428 256.668 75.588 253.954 67.7412C251.269 59.9208 249.341 53.5884 249.868 53.3508C250.468 53.0856 253.385 59.2092 256.054 66.9888C258.734 74.7384 261.259 80.856 260.717 81.144Z" fill="#E0E0E0"/>
<path d="M251.497 57.426C251.951 57.792 248.622 61.7052 242.74 63.3168C236.87 64.9812 231.997 63.3528 232.196 62.8056C232.309 62.1612 236.875 62.6844 242.141 61.1676C247.429 59.742 251.066 56.9328 251.497 57.426Z" fill="#E0E0E0"/>
<path d="M60.9984 159.887C59.5176 160.892 57.5016 160.508 56.4948 159.026C55.4892 157.546 55.8744 155.53 57.3552 154.523C58.836 153.517 60.852 153.902 61.8588 155.383C62.8644 156.864 62.4792 158.88 60.9984 159.887Z" fill="#E0E0E0"/>
<path d="M61.6271 158.891C61.3295 158.792 62.2883 155.486 64.2551 151.788C66.2219 148.11 67.8983 145.223 68.1671 145.336C68.4719 145.465 67.2107 148.646 65.2535 152.305C63.3119 155.958 61.9199 158.992 61.6271 158.891Z" fill="#E0E0E0"/>
<path d="M76.3464 151.925C76.3356 152.188 73.6284 152.13 70.9032 150.306C69.5568 149.413 68.5824 148.225 68.154 147.229C67.7016 146.23 67.8216 145.51 67.956 145.507C68.13 145.484 68.2896 146.077 68.85 146.843C69.39 147.616 70.3128 148.562 71.5344 149.375C73.9716 151.024 76.4244 151.578 76.3464 151.925Z" fill="#E0E0E0"/>
<path d="M69.1776 166.475C67.6968 167.48 65.6808 167.095 64.674 165.614C63.6684 164.134 64.0524 162.118 65.5344 161.111C67.0152 160.105 69.0312 160.49 70.038 161.971C71.0436 163.452 70.6584 165.468 69.1776 166.475Z" fill="#E0E0E0"/>
<path d="M69.8064 165.479C69.5088 165.38 70.4688 162.074 72.4344 158.376C74.4012 154.698 76.0776 151.811 76.3464 151.924C76.6512 152.054 75.39 155.236 73.4328 158.893C71.4912 162.546 70.0992 165.58 69.8064 165.479Z" fill="#E0E0E0"/>
<path d="M75.4007 153.925C75.4211 154.218 72.8327 154.333 70.2167 152.713C67.5863 151.116 66.5135 148.757 66.7835 148.643C67.0607 148.463 68.4359 150.33 70.8047 151.753C73.1483 153.218 75.4355 153.598 75.4007 153.925Z" fill="#E0E0E0"/>
<path d="M148.062 96.7476L117.653 93.0216C115.552 92.7636 114.056 90.852 114.314 88.7508L119.471 46.6608C119.729 44.5596 121.64 43.0644 123.742 43.3224L143.027 45.6852L156.07 62.9004L152.332 93.408C152.075 95.5104 150.163 97.0056 148.062 96.7476Z" fill="#EBEBEB"/>
<path d="M143.027 45.6852L141.576 57.5316C141.336 59.4864 142.727 61.2648 144.68 61.5036L156.071 62.9004L143.027 45.6852Z" fill="#F5F5F5"/>
<path d="M141.604 58.59C141.604 58.59 141.102 61.4448 144.257 62.79C144.376 62.8404 144.498 62.8824 144.62 62.9208C146.075 63.3684 155.652 66.3096 155.68 66.0852C155.71 65.8416 156.07 62.9016 156.07 62.9016L144.679 61.506C144.679 61.506 141.848 61.0608 141.604 58.59Z" fill="#E0E0E0"/>
<path d="M139.085 56.736C139.066 56.8884 135.901 56.6256 132.017 56.1504C128.131 55.674 124.997 55.1652 125.016 55.0128C125.035 54.8604 128.198 55.1232 132.084 55.5996C135.97 56.0748 139.104 56.5836 139.085 56.736Z" fill="#FAFAFA"/>
<path d="M147.35 64.5468C147.332 64.6992 142.133 64.188 135.74 63.4044C129.346 62.6208 124.178 61.8624 124.196 61.71C124.214 61.5576 129.413 62.0688 135.808 62.8524C142.2 63.636 147.368 64.3944 147.35 64.5468Z" fill="#FAFAFA"/>
<path d="M148.75 70.3944C148.732 70.5468 143.065 69.978 136.097 69.1236C129.126 68.2692 123.492 67.4544 123.51 67.302C123.528 67.1496 129.193 67.7184 136.164 68.5728C143.134 69.4272 148.769 70.242 148.75 70.3944Z" fill="#FAFAFA"/>
<path d="M148.104 75.6708C148.085 75.8232 142.419 75.2544 135.451 74.4C128.48 73.5456 122.846 72.7308 122.864 72.5784C122.884 72.426 128.547 72.9948 135.518 73.8492C142.487 74.7036 148.122 75.5196 148.104 75.6708Z" fill="#FAFAFA"/>
<path d="M147.457 80.9484C147.438 81.1008 141.773 80.532 134.804 79.6776C127.834 78.8232 122.2 78.0084 122.218 77.856C122.237 77.7036 127.901 78.2724 134.872 79.1268C141.84 79.98 147.476 80.796 147.457 80.9484Z" fill="#FAFAFA"/>
<path d="M146.81 86.2248C146.791 86.3772 141.126 85.8084 134.158 84.954C127.187 84.0996 121.553 83.2848 121.571 83.1324C121.59 82.98 127.254 83.5488 134.225 84.4032C141.194 85.2564 146.83 86.0724 146.81 86.2248Z" fill="#FAFAFA"/>
<path d="M203.364 181.542C203.369 184.309 201.13 186.557 198.362 186.562C195.595 186.566 193.348 184.327 193.343 181.56C193.338 178.793 195.577 176.545 198.344 176.54C201.112 176.536 203.359 178.775 203.364 181.542Z" fill="#E0E0E0"/>
<path d="M202.634 179.875C202.392 180.064 199.123 175.914 196.099 170.207C193.099 164.509 190.721 159.912 190.95 159.762C191.233 159.581 194.078 164 197.069 169.68C200.068 175.342 202.877 179.694 202.634 179.875Z" fill="#E0E0E0"/>
<path d="M200.178 154.217C200.45 154.308 199.39 156.925 196.576 158.731C193.778 160.566 190.956 160.468 190.984 160.181C190.945 159.857 193.454 159.473 195.974 157.805C198.523 156.185 199.897 154.05 200.178 154.217Z" fill="#E0E0E0"/>
<path d="M202.363 158.934C202.654 158.996 201.706 161.648 198.833 163.216C195.977 164.816 193.228 164.208 193.33 163.93C193.345 163.607 195.794 163.673 198.299 162.25C200.836 160.886 202.081 158.776 202.363 158.934Z" fill="#E0E0E0"/>
<path d="M274.348 234.83L281.683 232.6L313.589 231.658L320.788 233.618L319.846 251.158L303.565 261.539L287.778 261.224L277.849 252.18L275.647 243.215L274.348 234.83Z" fill="#FFBE9D"/>
<path d="M366.467 262.441C364.154 257.679 361.942 253.857 359.974 250.838C356.096 244.887 350.174 240.572 343.32 238.713L317.294 231.659C317.294 231.659 315.943 257.663 298.044 257.663C280.145 257.663 276.658 233.289 276.658 233.289L246.536 245.303C245.502 245.705 238.517 248.12 230.389 265.549C222.649 282.149 219.262 290.641 219.262 290.641L250.289 299.599L252.228 327.504L251.212 363.644H345.989L344.723 325.332L345.606 297.084L346.783 298.986L378.122 286.415C378.122 286.415 374.088 278.135 366.467 262.441Z" fill="#0D7678"/>
<path d="M251.554 351.517C250.888 354.247 249.098 360.34 248.083 362.887C247.885 363.384 247.822 364.788 248.053 365.27C248.429 366.05 249.983 365.759 250.832 365.594C258.656 364.075 267.314 365.327 274.951 367.608C282.905 369.984 290.503 374.398 298.802 374.255C304.385 374.159 309.686 371.99 315.043 370.418C324.96 367.508 335.459 366.599 345.728 367.76C346.435 367.841 347.212 367.914 347.798 367.511C348.703 366.889 348.632 365.555 348.462 364.47C348.058 361.89 345.334 354.798 344.675 352.238" fill="#0D7678"/>
<path d="M246.27 261.875C246.442 261.858 247.434 270.474 248.485 281.117C249.538 291.763 250.25 300.406 250.079 300.422C249.907 300.439 248.915 291.826 247.864 281.178C246.812 270.535 246.098 261.892 246.27 261.875Z" fill="#263238"/>
<path d="M347.209 265.716C347.382 265.724 347.112 273.74 346.608 283.616C346.103 293.496 345.554 301.495 345.382 301.487C345.209 301.478 345.479 293.465 345.983 283.585C346.488 273.708 347.036 265.708 347.209 265.716Z" fill="#263238"/>
<path d="M322.48 232.954C322.501 232.958 322.459 233.244 322.361 233.784C322.242 234.384 322.086 235.166 321.894 236.138C321.452 238.175 320.826 241.135 319.638 244.686C318.439 248.206 316.627 252.412 313.291 256.146C311.641 258.007 309.606 259.724 307.195 261C304.788 262.265 301.968 263.016 299.076 262.993C293.254 262.968 288.002 260.394 284.309 257.102C280.567 253.774 278.288 249.79 276.788 246.38C275.299 242.938 274.561 239.987 274.116 237.95C273.901 236.929 273.755 236.131 273.678 235.588C273.596 235.044 273.564 234.757 273.586 234.754C273.607 234.75 273.68 235.03 273.803 235.564C273.943 236.158 274.127 236.932 274.355 237.895C274.87 239.905 275.669 242.82 277.194 246.202C278.726 249.548 281.016 253.446 284.69 256.67C288.317 259.864 293.452 262.348 299.076 262.369C301.872 262.391 304.579 261.673 306.913 260.458C309.248 259.23 311.239 257.572 312.864 255.762C316.15 252.132 317.978 248.015 319.222 244.541C320.454 241.039 321.145 238.1 321.658 236.084C321.898 235.123 322.091 234.35 322.24 233.756C322.376 233.226 322.459 232.949 322.48 232.954Z" fill="#263238"/>
<path d="M284.98 251.657C285.078 251.798 284.446 252.413 283.567 253.028C282.688 253.645 281.894 254.029 281.796 253.889C281.696 253.747 282.329 253.134 283.208 252.517C284.088 251.9 284.881 251.516 284.98 251.657Z" fill="#263238"/>
<path d="M295.654 262.619C295.482 262.597 295.482 261.467 295.652 260.094C295.823 258.72 296.1 257.624 296.272 257.646C296.443 257.668 296.443 258.798 296.273 260.171C296.102 261.544 295.825 262.64 295.654 262.619Z" fill="#263238"/>
<path d="M311.447 258.154C311.328 258.278 310.336 257.531 309.232 256.482C308.126 255.433 307.327 254.483 307.446 254.357C307.565 254.232 308.556 254.98 309.661 256.028C310.765 257.076 311.564 258.028 311.447 258.154Z" fill="#263238"/>
<path d="M318.004 247.618C317.906 247.765 317.01 247.339 315.91 246.839C314.812 246.334 313.902 245.934 313.95 245.765C313.993 245.602 315.02 245.743 316.169 246.271C317.318 246.793 318.098 247.477 318.004 247.618Z" fill="#263238"/>
<path d="M278.44 240.732C278.5 240.894 277.865 241.278 277.022 241.59C276.18 241.902 275.448 242.023 275.388 241.861C275.328 241.699 275.963 241.315 276.805 241.003C277.649 240.691 278.38 240.57 278.44 240.732Z" fill="#263238"/>
<g opacity="0.3">
<path d="M346.966 270.487L350.111 297.65L346.784 298.985L345.607 297.083L346.966 270.487Z" fill="black"/>
</g>
<path d="M240.024 262.97C239.958 263.124 238.468 262.608 236.855 261.547C235.237 260.491 234.17 259.331 234.284 259.21C234.403 259.076 235.626 260 237.198 261.025C238.763 262.055 240.098 262.808 240.024 262.97Z" fill="white"/>
<path d="M265.384 266.878C265.367 267.049 263.033 266.966 260.17 266.693C257.305 266.419 254.998 266.058 255.014 265.886C255.031 265.715 257.365 265.798 260.228 266.071C263.093 266.345 265.4 266.706 265.384 266.878Z" fill="white"/>
<path d="M292.873 271.937C292.84 272.111 290.532 271.806 287.689 271.474C284.845 271.135 282.53 270.893 282.539 270.716C282.545 270.548 284.893 270.511 287.762 270.853C290.632 271.189 292.906 271.772 292.873 271.937Z" fill="white"/>
<path d="M327.794 268.369C327.822 268.54 325.142 269.126 321.809 269.68C318.474 270.233 315.749 270.544 315.721 270.373C315.692 270.203 318.372 269.616 321.707 269.063C325.04 268.51 327.767 268.199 327.794 268.369Z" fill="white"/>
<path d="M349.139 260.242C349.248 260.364 348.078 261.515 346.264 262.358C344.454 263.212 342.821 263.372 342.797 263.21C342.76 263.033 344.27 262.609 345.998 261.792C347.732 260.989 349.026 260.1 349.139 260.242Z" fill="white"/>
<path d="M361.618 257.071C361.696 257.219 360.034 258.238 357.787 259.061C355.542 259.891 353.617 260.195 353.581 260.032C353.54 259.858 355.368 259.29 357.571 258.474C359.777 257.666 361.537 256.913 361.618 257.071Z" fill="white"/>
<path d="M336.247 255.412C336.287 255.58 333.904 256.284 330.926 256.985C327.947 257.686 325.501 258.118 325.462 257.95C325.422 257.782 327.804 257.077 330.784 256.376C333.761 255.676 336.208 255.244 336.247 255.412Z" fill="white"/>
<path d="M353.632 247.656C353.708 247.811 351.76 248.933 349.28 250.163C346.8 251.393 344.728 252.265 344.651 252.11C344.574 251.956 346.522 250.834 349.002 249.604C351.482 248.372 353.555 247.501 353.632 247.656Z" fill="white"/>
<path d="M334.756 245.424C334.794 245.592 333.166 246.101 331.12 246.56C329.074 247.02 327.385 247.255 327.347 247.087C327.308 246.919 328.937 246.41 330.983 245.951C333.029 245.492 334.717 245.256 334.756 245.424Z" fill="white"/>
<path d="M346.384 241.828C346.45 241.987 345.696 242.447 344.702 242.854C343.709 243.26 342.85 243.461 342.785 243.301C342.72 243.142 343.472 242.682 344.466 242.275C345.46 241.868 346.319 241.668 346.384 241.828Z" fill="white"/>
<path d="M301.132 266.362C301.144 266.525 298.738 266.792 295.78 266.506C292.819 266.23 290.508 265.514 290.55 265.356C290.592 265.18 292.93 265.613 295.838 265.883C298.746 266.166 301.124 266.18 301.132 266.362Z" fill="white"/>
<path d="M318.686 261.512C318.732 261.679 317.728 262.098 316.442 262.448C315.157 262.799 314.08 262.948 314.034 262.781C313.988 262.614 314.993 262.195 316.278 261.845C317.562 261.496 318.641 261.347 318.686 261.512Z" fill="white"/>
<path d="M277.45 261.268C277.433 261.439 275.525 261.388 273.19 261.152C270.853 260.917 268.974 260.587 268.991 260.414C269.008 260.243 270.916 260.294 273.252 260.53C275.587 260.766 277.466 261.097 277.45 261.268Z" fill="white"/>
<path d="M258.608 256.724C258.574 256.894 256.507 256.616 253.994 256.105C251.479 255.594 249.469 255.042 249.504 254.873C249.539 254.704 251.604 254.981 254.119 255.492C256.632 256.004 258.643 256.555 258.608 256.724Z" fill="white"/>
<path d="M259.896 246.246C259.88 246.418 258.305 246.414 256.379 246.238C254.452 246.061 252.902 245.779 252.918 245.608C252.934 245.436 254.508 245.44 256.436 245.616C258.362 245.792 259.912 246.074 259.896 246.246Z" fill="white"/>
<path d="M272.58 250.71C272.61 250.871 271.166 251.213 269.39 250.915C267.612 250.63 266.354 249.844 266.434 249.702C266.51 249.538 267.817 250.032 269.491 250.3C271.164 250.58 272.56 250.53 272.58 250.71Z" fill="white"/>
<path d="M271.102 241.844C271.054 242.01 269.69 241.766 268.055 241.3C266.419 240.833 265.132 240.319 265.18 240.154C265.228 239.988 266.591 240.232 268.226 240.7C269.862 241.165 271.148 241.679 271.102 241.844Z" fill="white"/>
<path d="M330.745 237.628C330.794 237.793 330.029 238.165 329.036 238.458C328.044 238.751 327.199 238.854 327.151 238.688C327.102 238.523 327.868 238.151 328.86 237.858C329.851 237.565 330.696 237.462 330.745 237.628Z" fill="white"/>
<path d="M240.678 274.532C240.605 274.688 239.011 274.102 237.119 273.222C235.225 272.341 233.75 271.501 233.824 271.344C233.897 271.188 235.489 271.775 237.383 272.656C239.275 273.535 240.751 274.375 240.678 274.532Z" fill="white"/>
<path d="M230.402 285.048C230.371 285.217 228.75 285.06 226.782 284.695C224.813 284.33 223.243 283.897 223.274 283.728C223.306 283.559 224.927 283.716 226.896 284.081C228.864 284.446 230.434 284.879 230.402 285.048Z" fill="white"/>
<path d="M244.658 290.064C244.582 290.227 242.69 289.474 240.299 288.755C237.91 288.025 235.919 287.603 235.945 287.424C235.966 287.261 238.039 287.412 240.48 288.156C242.923 288.892 244.733 289.918 244.658 290.064Z" fill="white"/>
<path d="M259.18 278.448C259.18 278.621 257.466 278.76 255.352 278.76C253.237 278.76 251.524 278.62 251.524 278.448C251.524 278.275 253.237 278.136 255.352 278.136C257.465 278.136 259.18 278.275 259.18 278.448Z" fill="white"/>
<path d="M265.252 294.288C265.182 294.456 263.063 293.7 260.378 293.054C257.698 292.396 255.468 292.093 255.482 291.912C255.491 291.749 257.788 291.775 260.526 292.447C263.266 293.108 265.319 294.14 265.252 294.288Z" fill="white"/>
<path d="M293.365 287.435C293.359 287.518 292.408 287.539 290.875 287.443C289.343 287.348 287.23 287.12 284.921 286.715C282.611 286.308 280.547 285.8 279.074 285.367C277.601 284.934 276.714 284.59 276.737 284.509C276.788 284.333 280.444 285.3 285.029 286.099C289.61 286.913 293.377 287.251 293.365 287.435Z" fill="white"/>
<path d="M293.502 297.684C293.492 297.857 291.062 297.863 288.074 297.698C285.086 297.534 282.672 297.262 282.682 297.089C282.691 296.916 285.121 296.91 288.109 297.074C291.097 297.239 293.512 297.512 293.502 297.684Z" fill="white"/>
<path d="M311.196 280.069C311.201 280.242 308.839 280.441 305.924 280.513C303.007 280.586 300.641 280.505 300.636 280.333C300.631 280.16 302.992 279.962 305.909 279.889C308.824 279.816 311.191 279.898 311.196 280.069Z" fill="white"/>
<path d="M326.24 293.274C326.258 293.446 322.847 293.948 318.619 294.397C314.392 294.846 310.95 295.07 310.932 294.899C310.914 294.727 314.326 294.224 318.553 293.776C322.781 293.327 326.222 293.102 326.24 293.274Z" fill="white"/>
<path d="M338.389 278.48C338.43 278.648 335.272 279.554 331.336 280.505C327.398 281.455 324.175 282.09 324.134 281.922C324.094 281.754 327.252 280.848 331.188 279.898C335.124 278.947 338.348 278.314 338.389 278.48Z" fill="white"/>
<path d="M339.684 288.187C339.775 288.324 338.645 289.2 336.992 289.754C335.342 290.317 333.912 290.306 333.902 290.142C333.883 289.963 335.221 289.7 336.792 289.163C338.368 288.636 339.59 288.034 339.684 288.187Z" fill="white"/>
<path d="M357.388 268.673C357.436 268.838 355.764 269.462 353.656 270.064C351.546 270.666 349.799 271.02 349.752 270.854C349.705 270.689 351.376 270.066 353.485 269.462C355.592 268.861 357.34 268.507 357.388 268.673Z" fill="white"/>
<path d="M366.38 279.824C366.424 279.991 363.628 280.859 360.136 281.76C356.642 282.662 353.777 283.259 353.734 283.091C353.69 282.924 356.486 282.058 359.98 281.155C363.47 280.254 366.337 279.658 366.38 279.824Z" fill="white"/>
<path d="M369.534 270.528C369.6 270.688 367.643 271.644 365.165 272.665C362.686 273.686 360.623 274.384 360.558 274.224C360.492 274.064 362.448 273.108 364.927 272.087C367.405 271.067 369.468 270.368 369.534 270.528Z" fill="white"/>
<path d="M360.293 289.536C360.372 289.69 358.841 290.641 356.873 291.661C354.904 292.682 353.244 293.386 353.165 293.232C353.086 293.078 354.617 292.127 356.585 291.107C358.554 290.087 360.214 289.384 360.293 289.536Z" fill="white"/>
<path d="M269.206 314.158C269.192 314.329 266.935 314.292 264.166 314.074C261.395 313.855 259.16 313.538 259.174 313.366C259.187 313.194 261.444 313.231 264.215 313.45C266.984 313.669 269.22 313.986 269.206 314.158Z" fill="white"/>
<path d="M277.648 307.546C277.61 307.715 275.158 307.321 272.168 306.668C269.178 306.016 266.784 305.35 266.821 305.18C266.858 305.011 269.311 305.405 272.302 306.058C275.29 306.71 277.684 307.376 277.648 307.546Z" fill="white"/>
<path d="M308.285 307.489C308.285 307.662 306.275 307.801 303.797 307.801C301.318 307.801 299.309 307.661 299.309 307.489C299.309 307.316 301.318 307.177 303.797 307.177C306.275 307.176 308.285 307.316 308.285 307.489Z" fill="white"/>
<path d="M303.265 318.25C303.27 318.33 302.374 318.47 300.912 318.538C299.45 318.605 297.422 318.577 295.2 318.337C292.976 318.095 290.99 317.687 289.577 317.306C288.163 316.927 287.318 316.598 287.34 316.52C287.39 316.338 290.873 317.249 295.267 317.716C299.657 318.204 303.256 318.061 303.265 318.25Z" fill="white"/>
<path d="M336.796 310.644C336.818 310.807 333.703 311.35 329.813 311.43C325.922 311.521 322.787 311.118 322.802 310.955C322.817 310.775 325.945 310.896 329.8 310.805C333.652 310.726 336.774 310.465 336.796 310.644Z" fill="white"/>
<path d="M336.269 300.889C336.298 301.06 334.193 301.552 331.568 301.99C328.943 302.428 326.792 302.644 326.765 302.473C326.736 302.303 328.841 301.811 331.465 301.373C334.09 300.935 336.24 300.719 336.269 300.889Z" fill="white"/>
<path d="M265.516 358.706C265.486 358.885 263.08 358.595 260.105 358.529C257.13 358.45 254.712 358.624 254.692 358.442C254.668 358.28 257.092 357.824 260.12 357.904C263.148 357.972 265.548 358.546 265.516 358.706Z" fill="white"/>
<path d="M285.052 364.518C285.035 364.69 282.065 364.536 278.42 364.175C274.774 363.814 271.834 363.382 271.85 363.21C271.867 363.038 274.836 363.192 278.483 363.553C282.127 363.914 285.068 364.346 285.052 364.518Z" fill="white"/>
<path d="M304.06 369.002C304.094 369.162 301.187 369.893 297.512 370.181C293.837 370.481 290.851 370.222 290.86 370.058C290.866 369.877 293.828 369.854 297.462 369.558C301.096 369.274 304.026 368.824 304.06 369.002Z" fill="white"/>
<path d="M302.216 360.103C302.225 360.276 299.868 360.534 296.952 360.679C294.035 360.824 291.665 360.804 291.656 360.631C291.648 360.458 294.005 360.202 296.921 360.055C299.836 359.909 302.207 359.93 302.216 360.103Z" fill="white"/>
<path d="M286.373 354.792C286.376 354.965 283.128 355.164 279.119 355.236C275.108 355.309 271.855 355.228 271.853 355.056C271.85 354.884 275.098 354.684 279.108 354.612C283.116 354.538 286.369 354.619 286.373 354.792Z" fill="white"/>
<path d="M323.329 354.443C323.342 354.614 320.22 354.992 316.357 355.284C312.493 355.577 309.35 355.674 309.337 355.502C309.324 355.331 312.445 354.954 316.31 354.661C320.173 354.368 323.316 354.271 323.329 354.443Z" fill="white"/>
<path d="M324.654 361.632C324.666 361.819 321.545 362.06 317.821 362.976C314.09 363.87 311.208 365.087 311.132 364.914C311.059 364.775 313.874 363.281 317.675 362.369C321.468 361.438 324.656 361.475 324.654 361.632Z" fill="white"/>
<path d="M342.863 357.589C342.882 357.761 341.476 358.056 339.724 358.249C337.97 358.442 336.535 358.459 336.516 358.288C336.497 358.116 337.902 357.821 339.655 357.628C341.407 357.436 342.844 357.419 342.863 357.589Z" fill="white"/>
<path d="M321.09 238.045C321.008 238.201 320.035 237.846 318.84 237.45C317.645 237.048 316.655 236.747 316.684 236.573C316.709 236.406 317.789 236.437 319.038 236.857C320.288 237.272 321.17 237.898 321.09 238.045Z" fill="#263238"/>
<path d="M271.316 329.546C271.298 329.718 268.362 329.552 264.757 329.176C261.151 328.799 258.245 328.355 258.262 328.183C258.28 328.012 261.216 328.177 264.822 328.554C268.426 328.931 271.334 329.375 271.316 329.546Z" fill="white"/>
<path d="M291.356 326.778C291.346 326.951 289.118 326.947 286.384 326.772C283.648 326.597 281.438 326.315 281.449 326.142C281.46 325.97 283.687 325.973 286.423 326.148C289.159 326.323 291.367 326.605 291.356 326.778Z" fill="white"/>
<path d="M323.095 324.538C323.087 324.72 320.252 324.698 316.784 325.007C313.314 325.303 310.526 325.816 310.487 325.638C310.446 325.481 313.21 324.686 316.73 324.385C320.249 324.072 323.108 324.376 323.095 324.538Z" fill="white"/>
<path d="M337.501 335.812C337.499 335.984 333.566 336.066 328.718 335.994C323.869 335.922 319.942 335.724 319.944 335.552C319.946 335.381 323.879 335.298 328.728 335.37C333.576 335.441 337.505 335.639 337.501 335.812Z" fill="white"/>
<path d="M338.628 321.378C338.687 321.534 337.302 322.178 335.459 322.492C333.617 322.813 332.096 322.669 332.1 322.502C332.099 322.324 333.571 322.187 335.353 321.875C337.135 321.574 338.569 321.209 338.628 321.378Z" fill="white"/>
<path d="M303.724 335.489C303.766 335.642 301.493 336.298 298.602 336.227C295.71 336.173 293.468 335.419 293.516 335.268C293.56 335.088 295.808 335.551 298.615 335.603C301.421 335.672 303.689 335.306 303.724 335.489Z" fill="white"/>
<path d="M285.278 337.585C285.278 337.758 283.061 337.897 280.326 337.897C277.59 337.897 275.374 337.757 275.374 337.585C275.374 337.414 277.59 337.273 280.326 337.273C283.062 337.272 285.278 337.412 285.278 337.585Z" fill="white"/>
<path d="M271.998 344.563C271.993 344.736 270.226 344.825 268.05 344.762C265.874 344.7 264.114 344.51 264.12 344.338C264.125 344.165 265.892 344.076 268.068 344.137C270.244 344.2 272.003 344.39 271.998 344.563Z" fill="white"/>
<path d="M300.359 347.081C300.353 347.254 297.526 347.294 294.046 347.174C290.564 347.053 287.747 346.816 287.753 346.643C287.759 346.47 290.585 346.429 294.067 346.55C297.548 346.67 300.365 346.909 300.359 347.081Z" fill="white"/>
<path d="M325.12 343.453C325.093 343.632 322.636 343.396 319.603 343.318C316.57 343.229 314.104 343.33 314.087 343.151C314.069 342.986 316.543 342.605 319.62 342.694C322.697 342.773 325.147 343.291 325.12 343.453Z" fill="white"/>
<path d="M342.905 348.614C342.895 348.794 340.373 348.781 337.279 348.972C334.183 349.153 331.681 349.468 331.65 349.29C331.619 349.128 334.104 348.532 337.242 348.348C340.378 348.155 342.917 348.45 342.905 348.614Z" fill="white"/>
<path d="M258.042 338.035C258.07 338.206 257.134 338.495 255.953 338.682C254.772 338.868 253.793 338.881 253.765 338.711C253.739 338.54 254.674 338.251 255.856 338.064C257.035 337.878 258.014 337.865 258.042 338.035Z" fill="white"/>
<path d="M260.068 301.794C260.082 301.966 258.936 302.206 257.506 302.33C256.075 302.455 254.905 302.417 254.89 302.244C254.875 302.072 256.021 301.832 257.452 301.708C258.882 301.583 260.053 301.622 260.068 301.794Z" fill="white"/>
<path d="M276.732 275.407C276.709 275.579 275.532 275.563 274.103 275.374C272.674 275.184 271.534 274.891 271.556 274.72C271.579 274.549 272.756 274.564 274.186 274.754C275.614 274.944 276.755 275.237 276.732 275.407Z" fill="white"/>
<path d="M339.31 272.791C339.34 272.962 336.742 273.552 333.51 274.11C330.277 274.668 327.632 274.982 327.604 274.812C327.575 274.642 330.17 274.052 333.403 273.493C336.635 272.935 339.28 272.621 339.31 272.791Z" fill="white"/>
<g opacity="0.3">
<path d="M250.912 352.066C252.665 354.986 256.325 356.186 259.726 356.376C263.126 356.566 266.554 355.981 269.934 356.392C275.248 357.037 279.97 360.066 285.163 361.362C296.989 364.315 309.124 358.018 321.312 357.968C325.456 357.952 329.569 358.662 333.709 358.832C337.849 359.003 342.166 358.584 345.749 356.503L345.45 352.066H250.912Z" fill="black"/>
</g>
<path d="M335.47 414.688H265.248V431.574H335.47V414.688Z" fill="#455A64"/>
<path d="M270.733 431.574L234.984 570.244H242.692L281.89 431.574H270.733Z" fill="#455A64"/>
<path d="M328.099 431.574L364.116 570.244H356.41L316.943 431.574H328.099Z" fill="#455A64"/>
<path d="M317.063 432.005C317.177 432.134 306.803 441.445 293.894 452.8C280.982 464.158 270.426 473.257 270.312 473.128C270.198 472.998 280.57 463.688 293.483 452.33C306.39 440.976 316.949 431.875 317.063 432.005Z" fill="#263238"/>
<path d="M334.518 473.582C334.411 473.718 322.255 464.381 307.37 452.729C292.48 441.073 280.499 431.516 280.606 431.381C280.712 431.245 292.865 440.581 307.756 452.237C322.642 463.889 334.625 473.447 334.518 473.582Z" fill="#263238"/>
<path d="M335.141 431.574C335.141 431.747 319.806 431.886 300.893 431.886C281.974 431.886 266.642 431.746 266.642 431.574C266.642 431.401 281.975 431.262 300.893 431.262C319.805 431.262 335.141 431.401 335.141 431.574Z" fill="#263238"/>
<path d="M305.232 520.819L290.887 543.857L334.746 571.48C337.128 567.128 319.735 544.427 319.735 544.427L326.7 534.202L305.232 520.819Z" fill="#0F5F60"/>
<g opacity="0.3">
<path d="M305.142 520.819L290.797 543.857L334.656 571.48C337.038 567.128 319.646 544.427 319.646 544.427L326.611 534.202L305.142 520.819Z" fill="black"/>
</g>
<path d="M307.28 533.984C306.286 533.682 305.098 534.266 304.754 535.249C304.411 536.231 304.996 537.444 305.986 537.763C306.974 538.084 308.423 537.425 308.653 536.411C308.885 535.397 308.12 534.01 307.082 533.938" fill="white"/>
<path d="M290.88 543.712L293.088 540.131L334.249 568.302C334.249 568.302 335.653 570.391 334.559 571.62L290.88 543.712Z" fill="white"/>
<path d="M320.497 544.65C320.355 544.86 319.224 544.283 317.736 544.308C316.248 544.294 315.12 544.879 314.977 544.67C314.805 544.505 315.931 543.425 317.732 543.427C319.532 543.413 320.666 544.483 320.497 544.65Z" fill="#263238"/>
<path d="M323.898 549.45C323.816 549.689 322.66 549.469 321.361 549.917C320.051 550.326 319.25 551.19 319.043 551.046C318.821 550.952 319.463 549.605 321.086 549.079C322.706 548.539 324.023 549.244 323.898 549.45Z" fill="#263238"/>
<path d="M323.044 556.602C322.82 556.525 323.196 555.268 324.485 554.441C325.769 553.604 327.07 553.778 327.048 554.014C327.058 554.266 326.011 554.485 324.964 555.181C323.9 555.85 323.269 556.715 323.044 556.602Z" fill="#263238"/>
<path d="M323.365 539.238C323.153 539.377 322.356 538.463 321.093 537.782C319.844 537.077 318.647 536.89 318.651 536.635C318.625 536.402 320.044 536.189 321.52 537.011C323.002 537.822 323.576 539.136 323.365 539.238Z" fill="#263238"/>
<path d="M308.566 521.086L322.859 543.331L279.396 571.572C276.953 567.254 294.022 544.309 294.022 544.309L287.305 534.742L308.566 521.086Z" fill="#0D7678"/>
<g opacity="0.6">
<path d="M306.237 533.694C307.229 533.377 308.424 533.946 308.78 534.923C309.138 535.9 308.57 537.12 307.585 537.455C306.601 537.788 305.144 537.151 304.898 536.141C304.652 535.13 305.397 533.732 306.433 533.645" fill="white"/>
</g>
<g opacity="0.6">
<path d="M322.774 543.188L320.515 539.639L279.757 568.391C279.757 568.391 278.383 570.499 279.496 571.712L322.774 543.188Z" fill="white"/>
</g>
<path d="M293.173 544.547C293.318 544.754 294.442 544.162 295.93 544.165C297.418 544.13 298.553 544.699 298.693 544.489C298.862 544.321 297.721 543.258 295.92 543.284C294.12 543.295 293.002 544.381 293.173 544.547Z" fill="#263238"/>
<path d="M289.841 549.394C289.926 549.631 291.079 549.395 292.384 549.824C293.7 550.216 294.512 551.068 294.718 550.921C294.938 550.825 294.278 549.486 292.646 548.983C291.019 548.467 289.714 549.188 289.841 549.394Z" fill="#263238"/>
<path d="M290.796 556.532C291.018 556.452 290.624 555.2 289.325 554.392C288.03 553.573 286.732 553.766 286.757 554C286.751 554.252 287.8 554.458 288.857 555.138C289.93 555.793 290.572 556.649 290.796 556.532Z" fill="#263238"/>
<path d="M290.228 539.176C290.443 539.311 291.227 538.386 292.478 537.688C293.717 536.964 294.912 536.76 294.905 536.507C294.928 536.273 293.506 536.081 292.043 536.923C290.573 537.754 290.016 539.077 290.228 539.176Z" fill="#263238"/>
<path d="M250.512 363.263C250.512 363.263 212.342 400.904 220.373 427.846C226.718 449.131 281.89 538.415 281.89 538.415L315.028 516.745L271.913 436.441C271.913 436.441 271.072 429.242 269.472 424.844L271.913 421.645C271.913 421.645 286.2 414.875 298.196 415.674L299.27 363.66L250.512 363.263Z" fill="#263238"/>
<path d="M298.196 415.674C298.196 415.674 320.522 421.174 325.158 421.242C328.109 421.285 326.492 430.067 328.092 433.666L328.038 434.448L296.718 517.433L329.042 536.495C329.042 536.495 353.465 475.02 358.663 464.623C363.862 454.226 372.239 430.06 375.438 422.862C378.637 415.663 374.244 403.248 368.645 392.452C363.047 381.654 345.451 363.659 345.451 363.659H299.27L298.196 415.674Z" fill="#263238"/>
<path d="M362.791 401.72C362.747 401.851 360.596 400.79 356.85 400.248C353.15 399.686 347.726 399.89 342.511 402.364C337.298 404.848 333.716 408.928 331.817 412.151C329.873 415.398 329.339 417.734 329.209 417.686C329.176 417.678 329.286 417.096 329.605 416.074C329.921 415.051 330.498 413.603 331.435 411.926C333.269 408.59 336.887 404.351 342.242 401.797C347.602 399.256 353.173 399.125 356.918 399.809C358.81 400.14 360.298 400.606 361.29 401.006C362.284 401.407 362.804 401.689 362.791 401.72Z" fill="#455A64"/>
<path d="M344.251 421.242C344.291 421.331 343.212 421.873 341.531 422.844C339.848 423.812 337.58 425.249 335.255 427.075C332.932 428.908 331.002 430.774 329.664 432.181C328.325 433.588 327.544 434.508 327.467 434.448C327.407 434.402 328.067 433.382 329.336 431.885C330.602 430.387 332.512 428.442 334.868 426.584C337.228 424.732 339.568 423.334 341.321 422.455C343.074 421.574 344.221 421.172 344.251 421.242Z" fill="#455A64"/>
<path d="M271.994 421.61C271.886 421.685 270.829 419.97 268.615 417.643C267.515 416.476 266.082 415.204 264.378 413.948C262.651 412.724 260.646 411.528 258.412 410.537C256.166 409.567 253.924 408.911 251.854 408.463C249.776 408.046 247.871 407.843 246.266 407.791C243.055 407.683 241.067 407.993 241.052 407.866C241.046 407.824 241.537 407.73 242.437 407.597C242.886 407.525 243.437 407.448 244.082 407.424C244.727 407.395 245.462 407.311 246.276 407.35C247.903 407.345 249.845 407.504 251.966 407.898C254.08 408.323 256.373 408.974 258.661 409.963C260.94 410.974 262.979 412.211 264.719 413.484C266.437 414.79 267.864 416.118 268.939 417.342C269.51 417.923 269.933 418.532 270.337 419.035C270.746 419.536 271.051 420.001 271.291 420.389C271.78 421.154 272.03 421.586 271.994 421.61Z" fill="#455A64"/>
<path d="M271.994 421.61C271.894 421.62 271.754 420.528 271.33 418.818C270.913 417.106 270.146 414.79 268.981 412.367C266.653 407.498 263.67 404.215 263.831 404.088C263.886 404.036 264.701 404.79 265.825 406.183C266.95 407.573 268.352 409.63 269.545 412.097C270.733 414.565 271.45 416.96 271.762 418.726C272.082 420.491 272.065 421.606 271.994 421.61Z" fill="#455A64"/>
<path d="M281.89 538.415C281.886 538.409 281.933 538.369 282.03 538.297C282.15 538.212 282.293 538.11 282.469 537.985C282.893 537.696 283.47 537.302 284.206 536.801C285.77 535.756 288.008 534.263 290.84 532.373C296.609 528.568 304.792 523.171 314.596 516.704L314.504 517.056C309.184 506.987 302.912 495.119 296.22 482.455C286.693 464.31 278.022 447.796 271.574 435.516L271.56 435.487L271.554 435.457C270.726 431.54 269.99 428.058 269.346 425.008L269.353 425.033C267.744 420.666 264.931 418.038 262.867 416.689C261.827 415.997 260.953 415.584 260.37 415.301C260.094 415.18 259.873 415.081 259.696 415.003C259.544 414.934 259.47 414.895 259.472 414.887C259.472 414.887 260.813 415.201 262.973 416.527C265.092 417.838 268.006 420.474 269.693 424.906L269.698 424.918L269.701 424.932C270.373 427.976 271.141 431.452 272.004 435.361L271.982 435.302C278.468 447.562 287.19 464.048 296.774 482.164C303.439 494.842 309.685 506.724 314.983 516.804L315.098 517.022L314.892 517.156C305.038 523.544 296.813 528.877 291.014 532.636C288.148 534.472 285.882 535.924 284.298 536.938C283.543 537.41 282.952 537.781 282.517 538.054C282.331 538.165 282.18 538.255 282.055 538.331C281.95 538.393 281.893 538.421 281.89 538.415Z" fill="#455A64"/>
<path d="M297.52 402.33C297.511 402.438 295.787 402.308 293.015 402.476C290.243 402.628 286.427 403.142 282.336 404.242C278.249 405.354 274.7 406.859 272.296 408.236C269.875 409.591 268.561 410.72 268.487 410.63C268.458 410.598 268.771 410.299 269.364 409.782C269.653 409.513 270.038 409.228 270.493 408.905C270.94 408.568 271.465 408.21 272.072 407.855C274.454 406.358 278.034 404.764 282.173 403.638C286.314 402.526 290.191 402.073 292.997 402.035C294.398 401.995 295.536 402.06 296.316 402.138C297.096 402.221 297.523 402.287 297.52 402.33Z" fill="#455A64"/>
<path d="M297.068 395.669C297.029 395.686 296.812 395.281 296.452 394.538C296.039 393.67 295.538 392.617 294.952 391.384C293.669 388.742 291.877 385.054 289.054 381.59C286.228 378.133 282.757 375.856 280.022 374.866C277.28 373.837 275.408 373.886 275.425 373.753C275.425 373.718 275.885 373.68 276.716 373.733C277.548 373.781 278.749 373.98 280.171 374.449C283.019 375.358 286.643 377.65 289.537 381.193C292.423 384.736 294.169 388.502 295.355 391.2C295.943 392.558 296.384 393.67 296.676 394.442C296.966 395.215 297.108 395.651 297.068 395.669Z" fill="#455A64"/>
<path d="M325.159 377.09C325.171 377.215 323.407 377.309 320.69 378.041C319.33 378.395 317.755 378.973 316.072 379.752C314.406 380.566 312.641 381.6 310.934 382.892C309.244 384.208 307.788 385.644 306.57 387.042C305.382 388.466 304.415 389.837 303.721 391.06C302.31 393.494 301.764 395.173 301.646 395.13C301.606 395.116 301.724 394.693 301.975 393.936C302.094 393.554 302.257 393.094 302.5 392.581C302.736 392.066 302.971 391.46 303.336 390.845C303.992 389.574 304.94 388.147 306.13 386.672C307.349 385.223 308.826 383.741 310.555 382.397C312.301 381.076 314.116 380.032 315.83 379.23C317.562 378.463 319.186 377.917 320.584 377.612C321.272 377.42 321.919 377.348 322.477 377.255C323.035 377.153 323.522 377.114 323.922 377.099C324.718 377.053 325.157 377.048 325.159 377.09Z" fill="#455A64"/>
<path d="M330.49 412.634C330.4 412.721 329.221 411.409 326.857 409.884C324.506 408.35 320.998 406.615 316.909 405.286C312.835 403.907 308.989 403.182 306.197 402.878C305.518 402.832 304.888 402.788 304.306 402.748C303.784 402.746 303.31 402.746 302.874 402.745C302.095 402.812 301.654 402.83 301.645 402.788C301.637 402.746 302.063 402.647 302.854 402.503C303.25 402.46 303.738 402.434 304.306 402.397C304.872 402.394 305.519 402.406 306.232 402.437C309.074 402.63 312.985 403.296 317.106 404.69C321.241 406.034 324.778 407.862 327.104 409.517C327.701 409.909 328.199 410.323 328.627 410.696C329.066 411.056 329.431 411.38 329.692 411.686C330.239 412.271 330.522 412.606 330.49 412.634Z" fill="#455A64"/>
<path d="M331.414 422.488C331.363 422.543 330.983 422.322 330.55 421.768C330.116 421.22 329.684 420.311 329.569 419.237C329.459 418.162 329.693 417.182 330.002 416.557C330.311 415.925 330.637 415.63 330.698 415.674C330.858 415.762 329.958 417.208 330.191 419.172C330.371 421.14 331.552 422.369 331.414 422.488Z" fill="#455A64"/>
<path d="M329.856 429.244C329.789 429.281 329.516 428.981 329.274 428.38C329.03 427.784 328.861 426.876 328.987 425.888C329.116 424.901 329.509 424.066 329.896 423.551C330.282 423.031 330.622 422.809 330.677 422.863C330.818 422.981 329.816 424.164 329.606 425.969C329.353 427.766 330.022 429.166 329.856 429.244Z" fill="#455A64"/>
<path d="M298.47 395.131C298.643 395.134 298.721 399.75 298.643 405.442C298.566 411.134 298.364 415.747 298.192 415.745C298.019 415.742 297.942 411.127 298.019 405.433C298.094 399.742 298.297 395.129 298.47 395.131Z" fill="#455A64"/>
<path d="M331.962 198.851C330.478 199.681 328.486 198.606 327.812 197.044C327.138 195.481 327.45 193.675 327.964 192.053C328.477 190.43 329.186 188.839 329.289 187.141C329.477 184.055 327.372 180.972 324.428 180.024C327.317 177.733 327.553 172.826 324.9 170.268C323.66 169.073 322.007 168.421 320.563 167.483C319.737 166.945 318.986 166.309 318.277 165.618C319.589 165.896 320.899 166.026 322.213 165.74C324.305 165.286 326.146 163.72 326.836 161.693C327.526 159.666 326.99 157.25 325.44 155.773C323.89 154.296 321.384 153.892 319.49 154.891C317.624 155.875 316.601 157.906 315.695 159.81C315.414 160.4 315.133 160.99 314.851 161.58C312.224 158.1 309.755 154.506 305.704 153.282C302.032 152.173 298.08 153.41 294.254 153.133C291.466 152.93 288.791 151.925 286.013 151.621C283.234 151.316 280.073 151.91 278.432 154.174C277.47 155.502 277.166 157.222 276.191 158.542C274.178 161.267 269.842 161.638 268.188 164.594C266.844 166.998 267.878 170.032 267.301 172.724C266.674 175.652 264.26 177.792 262.283 180.041C260.304 182.29 258.588 185.38 259.696 188.162C260.67 190.61 263.526 191.927 264.456 194.392C265.135 196.189 264.641 198.186 264.606 200.107C264.571 202.028 265.342 204.308 267.214 204.744L288.521 210.372C295.859 213.356 303.43 216.389 311.351 216.377C319.273 216.365 327.728 212.563 330.856 205.284C329.711 205.238 328.591 204.737 327.796 203.914C329.85 202.973 331.433 201.05 331.962 198.851Z" fill="#263238"/>
<path d="M314.499 205.536C316.256 200.131 317.991 194.686 318.792 189.06C319.592 183.434 319.422 177.569 317.442 172.242C317.142 171.434 314.582 166.016 313.725 166.102C313.112 166.162 314.689 171.216 314.379 171.748C311.423 176.826 310.619 182.933 311.091 188.79C311.563 194.647 312.781 199.916 314.499 205.536Z" fill="#263238"/>
<path d="M295.681 252.763C304.49 252.578 314.486 233.323 314.486 233.323L315.06 183.854C315.522 169.609 307.617 157.466 293.365 157.398L292.047 157.469C278.789 158.179 268.295 168.949 267.937 182.222C267.605 194.572 267.396 208.22 267.831 214.813C268.733 228.46 282.505 229.852 282.505 229.852C282.535 229.852 282.582 233.021 282.624 237.034C282.717 246.048 292.152 253.072 295.681 252.763Z" fill="#FFBE9D"/>
<path d="M282.505 229.85C282.505 229.85 291.14 229.894 300.005 223.64C300.005 223.64 296.202 233.804 282.51 233.305L282.505 229.85Z" fill="#EB996E"/>
<path d="M273.831 192.938C273.849 193.97 274.74 194.806 275.818 194.806C276.894 194.806 277.752 193.972 277.733 192.94C277.714 191.908 276.826 191.071 275.749 191.071C274.672 191.071 273.812 191.908 273.831 192.938Z" fill="#263238"/>
<path d="M271.16 187.733C271.416 187.974 272.834 186.802 274.934 186.695C277.03 186.558 278.627 187.555 278.842 187.285C278.947 187.165 278.676 186.72 277.98 186.268C277.294 185.816 276.143 185.405 274.835 185.48C273.528 185.558 272.454 186.097 271.848 186.624C271.229 187.153 271.034 187.625 271.16 187.733Z" fill="#263238"/>
<path d="M292.736 192.436C292.755 193.468 293.645 194.302 294.722 194.302C295.797 194.302 296.657 193.468 296.639 192.436C296.619 191.404 295.73 190.568 294.654 190.567C293.576 190.567 292.717 191.404 292.736 192.436Z" fill="#263238"/>
<path d="M291.762 187.48C292.017 187.721 293.438 186.548 295.536 186.442C297.63 186.305 299.228 187.302 299.443 187.032C299.549 186.912 299.28 186.467 298.58 186.014C297.894 185.563 296.743 185.152 295.436 185.226C294.129 185.304 293.055 185.844 292.449 186.37C291.833 186.901 291.637 187.373 291.762 187.48Z" fill="#263238"/>
<path d="M285.098 204.01C285.102 203.89 283.785 203.734 281.657 203.578C281.118 203.551 280.605 203.472 280.495 203.111C280.349 202.73 280.542 202.141 280.767 201.503C281.202 200.179 281.657 198.792 282.133 197.338C284.023 191.41 285.36 186.547 285.12 186.473C284.88 186.4 283.154 191.143 281.265 197.071C280.813 198.533 280.379 199.925 279.967 201.258C279.797 201.878 279.485 202.588 279.801 203.376C279.967 203.768 280.376 204.038 280.724 204.113C281.073 204.199 281.376 204.19 281.641 204.191C283.777 204.19 285.097 204.128 285.098 204.01Z" fill="#263238"/>
<path d="M291.353 205.129C291.011 205.128 291.128 207.406 289.265 209.128C287.406 210.854 284.964 210.728 284.963 211.048C284.939 211.192 285.528 211.46 286.554 211.434C287.561 211.415 289.011 211.013 290.151 209.96C291.288 208.904 291.728 207.554 291.756 206.616C291.792 205.658 291.507 205.108 291.353 205.129Z" fill="#263238"/>
<path d="M291.421 178.957C291.659 179.516 293.739 179.134 296.217 179.299C298.699 179.414 300.723 180.029 301.022 179.5C301.155 179.246 300.78 178.728 299.947 178.219C299.121 177.71 297.824 177.254 296.337 177.169C294.851 177.086 293.51 177.394 292.633 177.806C291.749 178.219 291.317 178.692 291.421 178.957Z" fill="#263238"/>
<path d="M271.654 180.71C272.048 181.168 273.468 180.595 275.204 180.479C276.937 180.301 278.432 180.628 278.744 180.11C278.88 179.861 278.623 179.395 277.955 178.979C277.297 178.564 276.217 178.253 275.024 178.352C273.831 178.454 272.82 178.942 272.241 179.462C271.653 179.984 271.478 180.487 271.654 180.71Z" fill="#263238"/>
<path d="M314.486 194.026C314.714 193.913 323.72 190.747 323.923 200.1C324.125 209.452 314.694 207.726 314.672 207.458C314.651 207.19 314.486 194.026 314.486 194.026Z" fill="#FFBE9D"/>
<path d="M317.453 203.852C317.494 203.821 317.618 203.963 317.897 204.083C318.168 204.2 318.631 204.275 319.115 204.082C320.095 203.698 320.893 202.111 320.902 200.424C320.906 199.572 320.711 198.766 320.395 198.102C320.095 197.424 319.642 196.956 319.142 196.878C318.644 196.775 318.299 197.08 318.191 197.346C318.071 197.61 318.134 197.796 318.085 197.813C318.06 197.837 317.881 197.66 317.948 197.273C317.983 197.086 318.088 196.864 318.304 196.679C318.524 196.492 318.852 196.391 319.199 196.421C319.921 196.454 320.585 197.105 320.932 197.834C321.319 198.566 321.559 199.472 321.553 200.429C321.534 202.314 320.608 204.098 319.264 204.518C318.61 204.704 318.056 204.517 317.768 204.304C317.474 204.078 317.42 203.87 317.453 203.852Z" fill="#EB996E"/>
<path d="M273.791 166.649C272.267 165.833 276.746 160.872 280.445 159.137C286.034 156.514 294.6 154.834 299.803 156.236C306.067 157.926 311.293 160.966 314.498 166.606C317.705 172.246 318.967 178.85 318.869 185.338C318.839 187.316 318.66 189.382 317.624 191.069C316.344 193.153 313.854 194.489 314 197.34C314.054 198.382 313.77 199.439 313.065 200.208C311.378 202.051 309.263 200.366 308.277 198.665C306.174 195.028 305.889 190.656 305.655 186.462C305.489 183.48 305.329 180.434 306.133 177.559C306.571 175.994 307.286 174.511 307.637 172.925C307.987 171.338 307.916 169.543 306.914 168.264C306.751 168.056 306.483 167.795 306.145 167.506C303.467 165.218 299.749 164.57 296.444 165.787C291.201 167.718 282.241 170.616 279.87 168.859C276.457 166.331 275.627 164.664 275.627 164.664L273.791 166.649Z" fill="#263238"/>
<path d="M299.298 154.973C294.137 153.32 288.286 153.485 283.507 156.042C280.97 157.399 278.69 159.546 277.948 162.326C277.205 165.106 278.43 168.499 281.108 169.549L281.293 169.662C285.301 170.954 287.888 170.386 291.849 168.958C295.182 167.756 298.134 165.652 301.472 164.466C305.022 163.206 308.952 163.04 312.594 163.999C308.964 159.976 304.459 156.626 299.298 154.973Z" fill="#263238"/>
<path d="M317.084 164.22C317.004 164.292 316.252 163.397 314.732 162.342C313.973 161.824 313.026 161.254 311.894 160.824C310.771 160.394 309.455 160.075 308.09 160.187C305.312 160.452 302.996 161.743 301.57 162.876C300.124 164.024 299.452 164.987 299.363 164.918C299.332 164.896 299.462 164.632 299.77 164.2C300.073 163.764 300.575 163.175 301.285 162.538C302.693 161.276 305.074 159.848 308.039 159.565C309.539 159.444 310.939 159.81 312.107 160.29C313.284 160.772 314.242 161.405 314.993 161.987C316.496 163.171 317.138 164.184 317.084 164.22Z" fill="#455A64"/>
<path d="M318.018 167.536C318.084 167.551 317.926 168.605 317.306 170.204C316.693 171.802 315.541 173.915 313.799 175.884C312.049 177.848 310.087 179.243 308.575 180.042C307.06 180.847 306.032 181.129 306.01 181.066C305.899 180.884 309.937 179.351 313.332 175.469C316.781 171.638 317.825 167.447 318.018 167.536Z" fill="#455A64"/>
<path d="M321.823 169.05C321.863 169.051 321.89 169.43 321.86 170.114C321.833 170.798 321.721 171.788 321.452 172.988C320.93 175.376 319.62 178.634 317.13 181.489C314.641 184.345 311.592 186.089 309.297 186.931C308.145 187.361 307.181 187.607 306.506 187.728C305.832 187.85 305.454 187.874 305.447 187.836C305.423 187.727 306.917 187.468 309.132 186.521C311.337 185.591 314.25 183.841 316.658 181.078C319.067 178.315 320.402 175.192 321.023 172.88C321.659 170.556 321.711 169.04 321.823 169.05Z" fill="#455A64"/>
<path d="M288.586 154.12C288.607 154.223 287.616 154.453 286.109 155.053C284.602 155.648 282.6 156.689 280.692 158.255C278.789 159.829 277.385 161.596 276.512 162.96C275.635 164.324 275.219 165.253 275.123 165.214C275.059 165.191 275.333 164.192 276.134 162.733C276.929 161.276 278.328 159.4 280.295 157.774C282.268 156.155 284.377 155.141 285.959 154.639C287.543 154.13 288.575 154.054 288.586 154.12Z" fill="#455A64"/>
<path d="M324.757 155.293C324.913 155.29 324.504 158.003 322.386 160.498C320.295 163.016 317.694 163.889 317.67 163.735C317.577 163.564 319.932 162.485 321.907 160.097C323.917 157.738 324.572 155.231 324.757 155.293Z" fill="#455A64"/>
<path d="M221.946 291.415L209.327 316.745C207.918 319.574 207.258 322.717 207.412 325.874C207.89 335.708 216.004 343.436 225.85 343.436L262.034 341.34L263.616 324.832L236.082 318.193L246.52 298.464L221.946 291.415Z" fill="#FFBE9D"/>
<path d="M256.532 324.83H263.616C263.616 324.83 279.6 319.055 282.887 319.607C285.847 320.104 296.684 327.304 298.808 328.728C299.045 328.888 299.224 329.116 299.322 329.383C299.755 330.556 299.184 331.86 298.03 332.336L297.805 332.429L297.902 332.752C298.022 333.15 298.088 333.602 298.066 334.045C297.985 335.567 295.94 336.03 295.162 334.72L295.571 335.446C295.738 335.741 295.816 336.078 295.796 336.416L295.76 337.075C295.72 337.807 295.234 338.44 294.536 338.668C293.874 338.884 293.144 338.695 292.675 338.179C291.3 336.667 288.331 333.638 286.324 333.305C284.538 333.007 281.561 332.969 279.763 332.976C278.849 332.98 278.033 333.544 277.7 334.396C278.892 334.481 287.197 338.812 290.137 340.362C291.046 340.841 291.727 341.707 291.846 342.727C291.953 343.648 291.488 344.611 289.669 344.186C285.764 343.274 278.736 340.044 278.736 340.044C278.736 340.044 275.111 339.008 272.762 340.666C269.459 342.996 267.946 343.85 265.109 342.91C262.272 341.969 260.18 340.62 260.18 340.62L254.592 340.062C254.592 340.062 249.307 326.855 256.532 324.83Z" fill="#FFBE9D"/>
<path d="M277.639 327.529C277.652 327.59 278.773 327.23 280.642 327.113C282.497 326.987 285.136 327.202 287.761 328.322C290.388 329.443 292.369 331.2 293.561 332.627C294.768 334.058 295.284 335.116 295.337 335.083C295.352 335.075 295.236 334.807 294.982 334.344C294.727 333.881 294.316 333.233 293.725 332.491C292.56 331.01 290.561 329.189 287.879 328.045C285.198 326.902 282.5 326.718 280.625 326.9C279.682 326.987 278.928 327.138 278.418 327.275C277.909 327.41 277.634 327.512 277.639 327.529Z" fill="#EB996E"/>
<path d="M279.332 323.647C279.35 323.72 280.488 323.162 282.458 323.102C284.412 323.018 287.159 323.606 289.728 325.162C292.297 326.723 294.22 328.702 295.586 330.118C296.236 330.806 296.774 331.38 297.192 331.824C297.572 332.226 297.788 332.443 297.805 332.43C297.821 332.417 297.634 332.173 297.28 331.747C296.926 331.321 296.407 330.71 295.742 329.974C294.412 328.517 292.498 326.494 289.883 324.904C287.264 323.318 284.442 322.748 282.449 322.89C281.45 322.95 280.655 323.132 280.129 323.315C279.862 323.392 279.667 323.492 279.53 323.544C279.397 323.603 279.329 323.638 279.332 323.647Z" fill="#EB996E"/>
<path d="M236.082 318.192C236.063 318.305 234.829 318.098 232.834 318.112C230.844 318.143 228.078 318.463 225.203 319.458C222.317 320.423 219.925 321.857 218.366 323.086C216.802 324.322 216.064 325.336 215.975 325.27C215.94 325.244 216.102 324.977 216.431 324.508C216.772 324.05 217.321 323.428 218.083 322.747C219.61 321.396 222.04 319.856 225.001 318.866C227.951 317.845 230.809 317.586 232.84 317.67C233.857 317.734 234.677 317.816 235.231 317.952C235.788 318.067 236.09 318.15 236.082 318.192Z" fill="#EB996E"/>
<path d="M376.52 287.057C376.52 287.057 384.431 309.821 392.964 330.961C393.136 331.387 393.27 331.829 393.372 332.279C394.66 337.988 390.044 343.352 384.191 343.352H334.349V327.317L365.038 320.798L353.924 296.12L376.52 287.057Z" fill="#FFBE9D"/>
<path d="M344.724 325.331H337.64C337.64 325.331 321.656 319.555 318.37 320.107C315.409 320.604 304.572 327.804 302.448 329.228C302.212 329.388 302.033 329.616 301.934 329.884C301.501 331.056 302.072 332.36 303.227 332.837L303.451 332.929L303.354 333.252C303.234 333.65 303.168 334.103 303.191 334.546C303.27 336.067 305.316 336.53 306.095 335.22L305.686 335.946C305.519 336.241 305.441 336.578 305.46 336.917L305.496 337.576C305.537 338.308 306.023 338.941 306.72 339.168C307.382 339.384 308.112 339.196 308.581 338.68C309.956 337.168 312.925 334.139 314.933 333.805C316.718 333.508 319.696 333.469 321.493 333.476C322.408 333.48 323.224 334.044 323.556 334.896C322.364 334.981 314.059 339.313 311.119 340.862C310.211 341.342 309.529 342.208 309.41 343.228C309.304 344.148 309.768 345.112 311.587 344.687C315.492 343.775 322.52 340.544 322.52 340.544C322.52 340.544 326.146 339.509 328.494 341.166C331.798 343.496 333.311 344.351 336.148 343.41C338.984 342.469 341.076 341.12 341.076 341.12L346.664 340.562C346.664 340.562 351.949 327.355 344.724 325.331Z" fill="#FFBE9D"/>
<path d="M323.616 328.03C323.603 328.091 322.482 327.731 320.614 327.613C318.758 327.487 316.12 327.702 313.494 328.823C310.867 329.944 308.886 331.7 307.694 333.127C306.487 334.559 305.971 335.616 305.917 335.584C305.902 335.575 306.018 335.307 306.272 334.844C306.527 334.381 306.94 333.733 307.529 332.992C308.694 331.511 310.693 329.69 313.375 328.545C316.056 327.402 318.754 327.218 320.629 327.401C321.572 327.487 322.326 327.638 322.836 327.775C323.347 327.911 323.621 328.013 323.616 328.03Z" fill="#EB996E"/>
<path d="M321.924 324.148C321.906 324.221 320.768 323.664 318.798 323.603C316.844 323.519 314.097 324.108 311.528 325.662C308.959 327.223 307.037 329.202 305.67 330.618C305.022 331.307 304.482 331.88 304.064 332.324C303.684 332.728 303.468 332.944 303.451 332.93C303.435 332.917 303.623 332.674 303.977 332.246C304.331 331.82 304.849 331.208 305.514 330.473C306.845 329.016 308.759 326.993 311.373 325.403C313.992 323.818 316.814 323.248 318.807 323.389C319.806 323.449 320.601 323.632 321.128 323.814C321.396 323.891 321.59 323.992 321.727 324.043C321.859 324.102 321.927 324.138 321.924 324.148Z" fill="#EB996E"/>
<path d="M384.568 325.51C384.5 325.594 383.534 324.83 381.829 323.851C380.129 322.868 377.636 321.743 374.717 321.076C371.792 320.419 369.059 320.363 367.1 320.518C365.14 320.668 363.94 320.94 363.914 320.836C363.904 320.794 364.194 320.689 364.733 320.536C365.268 320.372 366.064 320.212 367.056 320.078C369.038 319.807 371.854 319.793 374.855 320.467C377.852 321.151 380.387 322.376 382.058 323.474C382.897 324.022 383.545 324.51 383.959 324.888C384.378 325.256 384.595 325.476 384.568 325.51Z" fill="#EB996E"/>
<path d="M511.486 343.984H88.1508V352.066H511.486V343.984Z" fill="#455A64"/>
<path d="M105.346 570.352H99.5496V351.517H111.946L105.346 570.352Z" fill="#455A64"/>
<path d="M179.904 570.244H174.121V351.67H186.517L179.904 570.244Z" fill="#263238"/>
<path d="M422.804 569.994H417.01V351.7H429.406L422.804 569.994Z" fill="#263238"/>
<path d="M485.218 570.244H479.422V351.601H491.818L485.218 570.244Z" fill="#455A64"/>
<path d="M334.659 343.897H260.313C258.2 343.897 256.463 342.234 256.37 340.123L254.138 288.952C254.041 286.706 255.834 284.833 258.081 284.833H336.744C338.987 284.833 340.778 286.699 340.687 288.941L338.602 340.112C338.516 342.227 336.776 343.897 334.659 343.897Z" fill="#E0E0E0"/>
<path d="M301.478 315.268C301.478 317.516 299.655 319.339 297.407 319.339C295.158 319.339 293.335 317.516 293.335 315.268C293.335 313.019 295.158 311.196 297.407 311.196C299.655 311.196 301.478 313.019 301.478 315.268Z" fill="white"/>
<path d="M475.524 253.456C475.732 252.046 476.879 250.962 478.298 250.834C480.292 250.654 481.925 252.391 481.624 254.37L468.106 336.876H461.933L475.524 253.456Z" fill="#263238"/>
<path d="M480.344 254.468L424.621 193.253L424.215 193.925L421.514 198.397L475.775 258.61C477.114 260.096 479.493 259.933 480.617 258.277C481.416 257.096 481.303 255.523 480.344 254.468Z" fill="#263238"/>
<path d="M476.251 256.055C476.213 256.056 476.156 255.924 476.179 255.67C476.201 255.421 476.328 255.037 476.693 254.72C477.044 254.405 477.671 254.201 478.303 254.416C478.928 254.609 479.486 255.272 479.478 256.055C479.486 256.838 478.928 257.501 478.303 257.695C477.671 257.91 477.044 257.706 476.693 257.389C476.328 257.074 476.201 256.688 476.179 256.44C476.156 256.186 476.213 256.054 476.251 256.055C476.351 256.033 476.352 256.626 476.96 257.038C477.251 257.232 477.695 257.321 478.106 257.153C478.515 256.996 478.857 256.559 478.853 256.055C478.856 255.551 478.515 255.113 478.106 254.957C477.695 254.789 477.249 254.878 476.96 255.072C476.352 255.482 476.351 256.075 476.251 256.055Z" fill="#455A64"/>
<path d="M477.102 250.909C477.165 250.852 477.803 251.443 478.779 252.446C479.259 252.956 479.862 253.523 480.45 254.288C481.016 255.038 481.566 256.117 481.327 257.33C481.056 258.553 480.01 259.306 479.06 259.556C478.078 259.841 477.12 259.574 476.501 259.2C475.249 258.416 474.811 257.617 474.851 257.587C474.928 257.498 475.513 258.197 476.706 258.809C477.301 259.098 478.087 259.267 478.902 259.003C479.699 258.766 480.522 258.118 480.717 257.201C480.906 256.272 480.489 255.335 479.984 254.626C479.469 253.903 478.889 253.286 478.452 252.742C477.558 251.663 477.037 250.967 477.102 250.909Z" fill="#455A64"/>
<path d="M437.473 344.154H488.207C488.207 344.154 481.732 336.08 464.84 336.08C449.106 336.08 439.735 340.709 437.473 344.154Z" fill="#263238"/>
<path d="M424.94 183.546L427.52 179.678L424.334 177.233L421.596 181.126L424.94 183.546Z" fill="#263238"/>
<path d="M429.308 185.88L418.204 177.829L407.54 190.651C389.053 193.633 381.598 205.262 381.598 205.262L414.696 230.609C426.028 218.084 420.66 200.194 420.66 200.194L429.308 185.88Z" fill="#0D7678"/>
<path d="M420.664 200.196C420.562 200.335 417.542 198.312 413.92 195.678C410.296 193.043 407.442 190.794 407.543 190.654C407.645 190.514 410.663 192.536 414.287 195.172C417.911 197.807 420.766 200.057 420.664 200.196Z" fill="#263238"/>
<path d="M380.188 214.081C380.261 214.237 374.596 217.019 367.537 220.292C360.476 223.567 354.695 226.093 354.623 225.937C354.551 225.781 360.214 223.001 367.274 219.726C374.333 216.451 380.116 213.924 380.188 214.081Z" fill="#263238"/>
<path d="M392.957 225.124C393.08 225.244 388.72 229.925 383.218 235.578C377.713 241.232 373.153 245.717 373.03 245.597C372.906 245.477 377.266 240.797 382.77 235.142C388.271 229.489 392.833 225.004 392.957 225.124Z" fill="#263238"/>
<path d="M401.377 258.241C401.206 258.227 401.561 252.552 402.172 245.57C402.782 238.585 403.416 232.938 403.589 232.952C403.762 232.967 403.405 238.64 402.794 245.624C402.184 252.606 401.549 258.256 401.377 258.241Z" fill="#263238"/>
<path d="M575.041 570.244C575.041 570.416 451.891 570.556 300.014 570.556C148.084 570.556 24.96 570.416 24.96 570.244C24.96 570.071 148.084 569.932 300.014 569.932C451.891 569.932 575.041 570.072 575.041 570.244Z" fill="#263238"/>
<path d="M210.681 79.7936L178.466 80.7475L179.228 106.504L211.444 105.55L210.681 79.7936Z" fill="#EBEBEB"/>
<path d="M210.67 79.8012C210.67 79.8012 210.616 79.806 210.514 79.8108C210.407 79.8156 210.257 79.8216 210.062 79.8288C209.66 79.8432 209.075 79.8636 208.313 79.89C206.782 79.9404 204.548 80.0136 201.719 80.1072C196.061 80.2848 188.018 80.5368 178.459 80.8368L178.541 80.7504C178.77 88.416 179.034 97.2036 179.312 106.502V106.505L179.216 106.414C191.143 106.067 202.226 105.744 211.432 105.476L211.356 105.557C211.144 97.8012 210.967 91.3728 210.844 86.8764C210.786 84.6276 210.74 82.8636 210.709 81.6552C210.695 81.0552 210.685 80.5944 210.677 80.2776C210.67 79.9668 210.67 79.8012 210.67 79.8012C210.67 79.8012 210.68 79.9548 210.692 80.262C210.703 80.5752 210.72 81.0312 210.742 81.624C210.781 82.8276 210.84 84.5856 210.916 86.826C211.058 91.3332 211.262 97.7784 211.51 105.552L211.512 105.63L211.434 105.632C202.229 105.908 191.147 106.242 179.22 106.601L179.126 106.603L179.124 106.51V106.507C178.853 97.2084 178.596 88.4208 178.373 80.7552L178.37 80.6712L178.454 80.6688C188.038 80.4024 196.099 80.1792 201.77 80.022C204.593 79.9476 206.82 79.89 208.348 79.8492C209.102 79.8312 209.683 79.8168 210.082 79.8084C210.274 79.8048 210.42 79.8024 210.524 79.8C210.622 79.7988 210.67 79.8012 210.67 79.8012Z" fill="#263238"/>
<path d="M209.576 81.4489L179.624 82.3358L180.291 104.848L210.243 103.961L209.576 81.4489Z" fill="#0F5F60"/>
<g opacity="0.3">
<path d="M180.28 104.854L190.327 90.552L197.066 99.1152L201.323 94.3044L210.23 103.968L180.28 104.854Z" fill="black"/>
</g>
<g opacity="0.3">
<path d="M199.507 88.5648C199.546 89.868 198.521 90.954 197.219 90.9924C195.917 91.0308 194.83 90.006 194.791 88.704C194.753 87.4008 195.778 86.3148 197.08 86.2764C198.382 86.2368 199.469 87.2616 199.507 88.5648Z" fill="black"/>
</g>
<path d="M196.087 96.9364L148.119 105.337L154.835 143.686L202.803 135.285L196.087 96.9364Z" fill="#EBEBEB"/>
<path d="M196.091 96.9312C196.091 96.9312 196.012 96.9504 195.859 96.9792C195.701 97.0092 195.479 97.05 195.187 97.104C194.59 97.212 193.717 97.3704 192.584 97.5756C190.306 97.9824 186.982 98.5764 182.77 99.3288C174.347 100.82 162.376 102.938 148.144 105.457L148.247 105.311C150.251 116.724 152.548 129.809 154.978 143.653L154.979 143.657L154.816 143.543C172.576 140.441 189.08 137.558 202.788 135.164L202.693 135.3C200.695 123.748 199.039 114.173 197.881 107.476C197.308 104.125 196.858 101.497 196.549 99.6972C196.398 98.8032 196.283 98.1168 196.204 97.644C196.126 97.1796 196.091 96.9312 196.091 96.9312C196.091 96.9312 196.14 97.1592 196.224 97.6152C196.309 98.0808 196.432 98.7588 196.592 99.642C196.913 101.434 197.382 104.05 197.98 107.384C199.17 114.094 200.872 123.686 202.924 135.26L202.944 135.376L202.828 135.396C189.122 137.803 172.62 140.702 154.864 143.821L154.724 143.845L154.7 143.706L154.699 143.702C152.279 129.856 149.993 116.77 147.997 105.354L147.976 105.229L148.1 105.208C162.374 102.734 174.38 100.654 182.828 99.1896C187.034 98.4672 190.351 97.8984 192.626 97.5072C193.752 97.3164 194.617 97.17 195.211 97.0704C195.497 97.0236 195.716 96.9876 195.871 96.9624C196.019 96.9396 196.091 96.9312 196.091 96.9312Z" fill="#263238"/>
<path d="M194.793 99.6513L150.195 107.462L156.066 140.983L200.664 133.173L194.793 99.6513Z" fill="#0F5F60"/>
<g opacity="0.4">
<path d="M156.071 140.98L167.998 117.414L179.93 128.76L185.254 120.646L200.669 133.168L156.071 140.98Z" fill="black"/>
</g>
<g opacity="0.4">
<path d="M181.296 112.454C181.636 114.394 180.338 116.242 178.399 116.581C176.46 116.921 174.612 115.624 174.272 113.684C173.933 111.745 175.23 109.897 177.169 109.558C179.108 109.218 180.956 110.515 181.296 112.454Z" fill="black"/>
</g>
<path d="M96.6708 165.482L104.154 194.2C104.42 195.222 105.437 195.862 106.475 195.659L158.804 185.416C159.889 185.203 160.596 184.152 160.384 183.068L155.953 160.432C155.74 159.342 154.681 158.635 153.593 158.855L121.451 165.361C120.931 165.467 120.391 165.361 119.95 165.068L113.278 160.654C112.84 160.363 112.304 160.258 111.79 160.358L98.2224 163.014C97.0896 163.237 96.3792 164.366 96.6708 165.482Z" fill="#0F5F60"/>
<path d="M154.899 155.036L97.7218 166.228L104.41 200.395L161.587 189.203L154.899 155.036Z" fill="#F5F5F5"/>
<path d="M93.7704 170.18L105.11 204.955C105.312 205.573 105.943 205.944 106.58 205.819L162.302 194.912C162.961 194.784 163.41 194.17 163.333 193.502L159.164 157.325C159.078 156.58 158.376 156.066 157.639 156.21L94.746 168.521C93.9888 168.667 93.5316 169.446 93.7704 170.18Z" fill="#0F5F60"/>
<g opacity="0.3">
<path d="M93.7704 170.18L105.11 204.955C105.312 205.573 105.943 205.944 106.58 205.819L162.302 194.912C162.961 194.784 163.41 194.17 163.333 193.502L159.164 157.325C159.078 156.58 158.376 156.066 157.639 156.21L94.746 168.521C93.9888 168.667 93.5316 169.446 93.7704 170.18Z" fill="black"/>
</g>
<path d="M116.203 138.35L78.8568 124.681C77.5512 124.192 77.01 122.446 77.4996 121.14L86.7672 96.8772C87.2568 95.5716 88.7544 94.5264 90.06 95.016L127.466 108.962C128.772 109.452 128.916 110.854 128.426 112.158L118.706 137.213C118.328 138.218 117.209 138.727 116.203 138.35Z" fill="#FAFAFA"/>
<path d="M115.831 138.205C115.831 138.155 116.341 138.457 117.296 138.223C117.755 138.091 118.31 137.789 118.715 137.209C118.922 136.925 119.046 136.567 119.191 136.175C119.336 135.786 119.49 135.372 119.653 134.935C120.982 131.411 122.887 126.354 125.239 120.116C125.832 118.553 126.452 116.916 127.099 115.21C127.423 114.356 127.753 113.486 128.09 112.6C128.246 112.152 128.466 111.71 128.531 111.281C128.599 110.839 128.539 110.378 128.356 109.964C128.17 109.553 127.86 109.195 127.466 108.962C127.085 108.746 126.563 108.604 126.1 108.421C125.146 108.073 124.176 107.72 123.192 107.363C121.224 106.645 119.2 105.908 117.124 105.151C108.816 102.116 99.6888 98.7804 90.108 95.28C89.0136 94.8564 87.696 95.4636 87.2268 96.5172C86.7756 97.6872 86.328 98.8488 85.8828 100.002C84.9936 102.322 84.1176 104.608 83.2572 106.854C81.534 111.346 79.8708 115.678 78.2868 119.806C78.0888 120.322 77.892 120.834 77.6964 121.343C77.4888 121.825 77.4348 122.323 77.532 122.81C77.6328 123.29 77.8824 123.739 78.2496 124.054C78.5988 124.387 79.0908 124.511 79.5912 124.705C81.5556 125.429 83.4636 126.132 85.308 126.812C88.9944 128.173 92.4288 129.443 95.5668 130.601C101.815 132.924 106.88 134.807 110.41 136.12C112.139 136.774 113.491 137.286 114.437 137.644C114.877 137.816 115.223 137.951 115.48 138.052C115.715 138.145 115.834 138.198 115.831 138.205C115.829 138.214 115.704 138.176 115.464 138.097C115.204 138.008 114.852 137.888 114.404 137.735C113.452 137.398 112.088 136.914 110.346 136.297C106.804 135.019 101.72 133.187 95.4492 130.925C92.3052 129.782 88.8624 128.533 85.1688 127.192C83.3208 126.52 81.4104 125.824 79.4436 125.108C78.9768 124.927 78.4032 124.788 77.9628 124.381C77.5212 124.004 77.22 123.47 77.0988 122.899C76.9776 122.33 77.0544 121.704 77.2788 121.183C77.4732 120.673 77.6688 120.16 77.8656 119.644C79.4412 115.512 81.0948 111.176 82.8084 106.682C83.6664 104.435 84.54 102.149 85.4268 99.8268C85.8756 98.6616 86.328 97.4892 86.7828 96.3072C87.3444 95.0424 88.9308 94.302 90.2748 94.818C99.8508 98.3316 108.973 101.68 117.275 104.726C119.348 105.49 121.37 106.234 123.336 106.957C124.319 107.32 125.287 107.676 126.24 108.026C126.718 108.22 127.183 108.332 127.675 108.607C128.142 108.886 128.507 109.314 128.723 109.799C128.936 110.286 129.002 110.827 128.921 111.341C128.832 111.87 128.608 112.294 128.452 112.739C128.111 113.623 127.776 114.492 127.447 115.343C126.791 117.044 126.16 118.679 125.557 120.239C123.145 126.454 121.189 131.491 119.826 135.002C119.656 135.437 119.495 135.847 119.342 136.235C119.195 136.615 119.054 136.997 118.828 137.293C118.388 137.896 117.797 138.196 117.316 138.318C116.825 138.432 116.435 138.386 116.189 138.329C115.945 138.272 115.831 138.205 115.831 138.205Z" fill="#0A9797"/>
<path d="M105.502 114.67L109.394 119.542L103.182 120.668L96.9696 121.796L99.2892 115.798L101.609 109.798L105.502 114.67Z" fill="#0A9797"/>
<path d="M135.38 304.955C135.553 304.955 135.692 304.283 135.692 303.455C135.692 302.626 135.553 301.955 135.38 301.955C135.208 301.955 135.068 302.626 135.068 303.455C135.068 304.283 135.208 304.955 135.38 304.955Z" fill="#263238"/>
<path d="M135.38 318.491C135.208 318.491 135.068 316.975 135.068 315.107C135.068 313.237 135.209 311.723 135.38 311.723C135.553 311.723 135.692 313.237 135.692 315.107C135.694 316.975 135.553 318.491 135.38 318.491Z" fill="#263238"/>
<path d="M138.38 328.258C138.38 328.43 137.038 328.57 135.38 328.57C134.755 327.946 135.208 328.396 135.067 328.256V328.255V328.253V328.248V328.238V328.219V328.181V328.104L135.068 327.952L135.073 327.654C135.079 327.475 135.085 327.292 135.091 327.091C135.107 326.732 135.13 326.41 135.158 326.137C135.215 325.595 135.293 325.259 135.379 325.259C135.466 325.259 135.544 325.595 135.6 326.137C135.629 326.408 135.652 326.732 135.667 327.091C135.673 327.292 135.679 327.476 135.685 327.654L135.69 327.952L135.691 328.104V328.181V328.219V328.238V328.248V328.253V328.255V328.256C135.552 328.117 136.003 328.57 135.379 327.944C137.038 327.946 138.38 328.086 138.38 328.258Z" fill="#263238"/>
<path d="M150.436 328.258C150.436 328.43 149.086 328.57 147.422 328.57C145.758 328.57 144.408 328.429 144.408 328.258C144.408 328.085 145.757 327.946 147.422 327.946C149.086 327.946 150.436 328.086 150.436 328.258Z" fill="#263238"/>
<path d="M162.491 328.258C162.491 328.43 161.142 328.57 159.478 328.57C157.813 328.57 156.463 328.429 156.463 328.258C156.463 328.085 157.812 327.946 159.478 327.946C161.141 327.946 162.491 328.086 162.491 328.258Z" fill="#263238"/>
<path d="M174.546 328.258C174.546 328.43 173.196 328.57 171.533 328.57C169.868 328.57 168.518 328.429 168.518 328.258C168.518 328.085 169.867 327.946 171.533 327.946C173.196 327.946 174.546 328.086 174.546 328.258Z" fill="#263238"/>
<path d="M186.601 328.258C186.601 328.43 185.252 328.57 183.588 328.57C181.924 328.57 180.574 328.429 180.574 328.258C180.574 328.085 181.922 327.946 183.588 327.946C185.251 327.946 186.601 328.086 186.601 328.258Z" fill="#263238"/>
<path d="M198.655 328.258C198.655 328.43 197.306 328.57 195.642 328.57C193.978 328.57 192.628 328.429 192.628 328.258C192.628 328.085 193.976 327.946 195.642 327.946C197.306 327.946 198.655 328.086 198.655 328.258Z" fill="#263238"/>
<path d="M210.71 328.258C210.71 328.43 209.36 328.57 207.697 328.57C206.033 328.57 204.683 328.429 204.683 328.258C204.683 328.085 206.032 327.946 207.697 327.946C209.362 327.946 210.71 328.086 210.71 328.258Z" fill="#263238"/>
<path d="M222.766 328.258C222.766 328.43 221.416 328.57 219.752 328.57C218.088 328.57 216.738 328.429 216.738 328.258C216.738 328.085 218.087 327.946 219.752 327.946C221.417 327.946 222.766 328.086 222.766 328.258Z" fill="#263238"/>
<path d="M234.821 328.258C234.821 328.43 233.471 328.57 231.808 328.57C230.143 328.57 228.793 328.429 228.793 328.258C228.793 328.085 230.142 327.946 231.808 327.946C233.471 327.946 234.821 328.086 234.821 328.258Z" fill="#263238"/>
<path d="M246.876 328.258C246.876 328.43 245.527 328.57 243.863 328.57C242.198 328.57 240.85 328.429 240.85 328.258C240.85 328.085 242.198 327.946 243.863 327.946C245.526 327.946 246.876 328.086 246.876 328.258Z" fill="#263238"/>
<path d="M255.904 328.258C255.904 328.43 255.232 328.57 254.404 328.57C253.574 328.57 252.904 328.429 252.904 328.258C252.904 328.085 253.576 327.946 254.404 327.946C255.232 327.946 255.904 328.086 255.904 328.258Z" fill="#263238"/>
<path d="M174.866 298.096H89.1372C84.6396 298.096 80.994 294.45 80.994 289.952V204.223C80.994 199.726 84.6396 196.08 89.1372 196.08H174.866C179.364 196.08 183.01 199.726 183.01 204.223V289.952C183.01 294.45 179.363 298.096 174.866 298.096Z" fill="#0D7678"/>
<path d="M151.081 268.624C156.578 267.037 160.159 260.627 158.628 255.114C157.097 249.601 150.722 245.956 145.194 247.432C146.076 238.919 138.33 230.556 129.775 230.784C121.22 231.013 113.932 239.777 115.267 248.231C110.054 248.137 105.209 252.731 105.024 257.94C104.839 263.15 109.348 268.075 114.554 268.35L151.081 268.624Z" fill="white"/>
</svg>
