<svg width="22" height="26" viewBox="0 0 22 26" fill="none" xmlns="http://www.w3.org/2000/svg">
<path d="M10.9443 15.3975C9.74546 15.3975 8.77614 14.6338 8.04773 13.9077C7.02728 12.8895 6.55228 11.9679 6.55228 11.0077C6.55228 10.0407 7.04205 9.08384 8.04773 8.07929C10.6659 5.46907 12.6352 6.82929 13.8875 8.07929C14.908 9.09634 15.383 10.0157 15.383 10.9759C15.383 11.9441 14.8932 12.902 13.8875 13.9054C12.792 14.9986 11.8091 15.3963 10.9455 15.3963L10.9443 15.3975ZM10.9898 7.73043C10.3557 7.73043 9.66705 8.0702 8.85 8.88611C8.06819 9.66566 7.68864 10.36 7.68864 11.0088C7.68864 11.6475 8.05796 12.3122 8.85 13.1032C10.1568 14.4088 11.3216 14.8611 13.0852 13.1032C13.867 12.3236 14.2466 11.6282 14.2466 10.9793C14.2466 10.3407 13.8773 9.67588 13.0852 8.88611C12.3841 8.18611 11.7239 7.73043 10.9898 7.73043Z" fill="#2F2F2F"/>
<path d="M10.9591 0.5C5.49205 0.573864 0 5.94659 0 11.1466C0 18.3136 10.2273 25.1284 10.6568 25.408C10.7511 25.4693 10.8591 25.5 10.967 25.5C11.0795 25.5 11.1909 25.467 11.2875 25.4011C11.717 25.1068 21.8148 18.1295 21.9341 11.1182C21.767 5.73523 16.4409 0.575 10.9591 0.5ZM10.9591 24.2398C9.25341 23.0534 1.25795 17.1716 1.13523 11.1386C1.29205 6.40568 6.16023 1.70227 10.9591 1.63636C15.7773 1.70227 20.6511 6.41591 20.7977 11.1261C20.6989 16.8761 12.6614 23.0057 10.9591 24.2398Z" fill="#2F2F2F"/>
</svg>
