<svg width="25" height="26" viewBox="0 0 25 26" fill="none" xmlns="http://www.w3.org/2000/svg">
<path d="M12.5 0.5C5.60729 0.5 0 6.10729 0 13C0 19.8927 5.60729 25.5 12.5 25.5C19.3927 25.5 25 19.8927 25 13C25 6.10729 19.3927 0.5 12.5 0.5ZM12.5 24.4583C6.18229 24.4583 1.04167 19.3177 1.04167 13C1.04167 6.68229 6.18229 1.54167 12.5 1.54167C18.8177 1.54167 23.9583 6.68229 23.9583 13C23.9583 19.3177 18.8177 24.4583 12.5 24.4583ZM16.6667 15.4729C16.6667 16.9812 15.4396 18.2083 13.9312 18.2083H13.0208V19.7708C13.0208 20.0583 12.7875 20.2917 12.5 20.2917C12.2125 20.2917 11.9792 20.0583 11.9792 19.7708V18.2083H11.0146C9.99479 18.2083 9.04271 17.6604 8.53333 16.776C8.38854 16.5271 8.47396 16.2083 8.72396 16.0646C8.97187 15.9187 9.29062 16.0052 9.43542 16.2552C9.76042 16.8177 10.3667 17.1667 11.0156 17.1667H13.9323C14.8656 17.1667 15.626 16.4073 15.626 15.4729C15.626 14.6365 15.0271 13.9333 14.201 13.801L10.6365 13.2281C9.30313 13.0135 8.33438 11.8781 8.33438 10.5271C8.33438 9.01875 9.56146 7.79167 11.0698 7.79167H11.9802V6.22917C11.9802 5.94167 12.2135 5.70833 12.501 5.70833C12.7885 5.70833 13.0219 5.94167 13.0219 6.22917V7.79167H13.9865C15.0062 7.79167 15.9573 8.34062 16.4677 9.22396C16.6125 9.47292 16.5271 9.79167 16.2771 9.93542C16.0312 10.0771 15.7094 9.99479 15.5656 9.74479C15.2406 9.18229 14.6344 8.83333 13.9854 8.83333H11.0688C10.1354 8.83333 9.375 9.59271 9.375 10.5271C9.375 11.3635 9.97396 12.0667 10.8 12.199L14.3646 12.7719C15.6979 12.9865 16.6667 14.1229 16.6667 15.4729Z" fill="#2F2F2F"/>
</svg>
