<svg width="40" height="40" viewBox="0 0 40 40" fill="none" xmlns="http://www.w3.org/2000/svg">
<path d="M20 0C8.97167 0 0 8.97167 0 20C0 31.0283 8.97167 40 20 40C31.0283 40 40 31.0283 40 20C40 8.97167 31.0283 0 20 0ZM20 38.3333C9.89167 38.3333 1.66667 30.1083 1.66667 20C1.66667 9.89167 9.89167 1.66667 20 1.66667C30.1083 1.66667 38.3333 9.89167 38.3333 20C38.3333 30.1083 30.1083 38.3333 20 38.3333ZM24.1667 10H15.8333C13.535 10 11.6667 11.87 11.6667 14.1667V27.8017C11.6667 28.6933 12.1983 29.49 13.0217 29.8317C13.855 30.175 14.7733 29.9967 15.4167 29.355L20 24.7717L24.5833 29.355C25.01 29.7817 25.5567 30.005 26.1233 30.005C26.4083 30.005 26.6983 29.9483 26.9783 29.8317C27.8017 29.49 28.3333 28.6933 28.3333 27.8017V14.1667C28.3333 11.87 26.465 10 24.1667 10ZM26.6667 27.8017C26.6667 28.12 26.4367 28.2517 26.34 28.2917C26.2433 28.33 25.9883 28.4017 25.7617 28.1767L20 22.415L14.2383 28.1767C14.0117 28.4017 13.7567 28.3317 13.66 28.2917C13.5617 28.2517 13.3333 28.12 13.3333 27.8017V14.1667C13.3333 12.7883 14.455 11.6667 15.8333 11.6667H24.1667C25.545 11.6667 26.6667 12.7883 26.6667 14.1667V27.8017Z" fill="#0D7678"/>
</svg>
