<svg width="22" height="23" viewBox="0 0 22 23" fill="none" xmlns="http://www.w3.org/2000/svg">
<path d="M21.7429 20.9478L16.2758 15.4807C17.7656 13.6586 18.4982 11.3335 18.3218 8.98647C18.1455 6.63941 17.0738 4.44992 15.3284 2.87087C13.583 1.29183 11.2974 0.444038 8.9445 0.502869C6.59156 0.5617 4.35124 1.52265 2.68695 3.18695C1.02265 4.85124 0.0617 7.09156 0.00286919 9.4445C-0.0559616 11.7974 0.791825 14.083 2.37087 15.8284C3.94992 17.5738 6.13941 18.6455 8.48647 18.8218C10.8335 18.9982 13.1586 18.2656 14.9807 16.7758L20.4478 22.2429C20.6205 22.4097 20.8519 22.5021 21.092 22.5C21.3322 22.4979 21.5619 22.4016 21.7317 22.2317C21.9016 22.0619 21.9979 21.8322 22 21.592C22.0021 21.3519 21.9097 21.1205 21.7429 20.9478ZM9.18846 17.0158C7.73925 17.0158 6.32259 16.586 5.11762 15.7809C3.91265 14.9758 2.97349 13.8314 2.4189 12.4925C1.86432 11.1536 1.71921 9.68033 2.00194 8.25897C2.28466 6.83761 2.98252 5.53201 4.00727 4.50727C5.03201 3.48252 6.33761 2.78466 7.75897 2.50194C9.18033 2.21921 10.6536 2.36432 11.9925 2.9189C13.3314 3.47349 14.4758 4.41265 15.2809 5.61762C16.086 6.82259 16.5158 8.23925 16.5158 9.68846C16.5136 11.6311 15.7409 13.4936 14.3672 14.8672C12.9936 16.2409 11.1311 17.0136 9.18846 17.0158Z" fill="#2F2F2F" fill-opacity="0.5"/>
</svg>
