<svg width="232" height="30" viewBox="0 0 232 30" fill="none" xmlns="http://www.w3.org/2000/svg">
<path d="M100.66 19.4981H115.884L107.844 6.51526L93.063 29.9709H86.3312L104.315 1.83181C105.671 -0.110805 108.344 -0.582031 110.277 0.773955C110.672 1.05285 111.018 1.38944 111.306 1.78374L129.338 29.9709H122.616L119.452 24.7297H104.046L100.689 19.5077M170.537 24.7201V0.283496H164.824V27.1339C164.824 27.8841 165.132 28.6053 165.671 29.1343C166.219 29.692 166.969 30.0094 167.748 29.9998H193.714L197.099 24.7586H170.498M76.0795 20.354C81.6189 20.354 86.1196 15.8629 86.1196 10.3139C86.1196 4.77459 81.6285 0.273875 76.0795 0.273875H51.1044V29.9613H56.8072V5.53433H75.7237C78.378 5.53433 80.5322 7.68852 80.5322 10.3428C80.5322 12.9971 78.378 15.1513 75.7237 15.1513H59.6346L76.6758 29.9709H84.9559L73.5118 20.3636L76.0795 20.354ZM16.0218 29.9709H33.2746C41.4682 29.7594 47.9404 22.941 47.7288 14.7473C47.5269 6.85185 41.1701 0.495063 33.2746 0.293107H16.0218C7.82823 0.081535 1.00983 6.55373 0.798256 14.7473C0.586683 22.941 7.05887 29.7594 15.2525 29.9709C15.5121 29.9709 15.7718 29.9709 16.0218 29.9709ZM32.8899 24.7393H16.4065C11.098 24.5662 6.94347 20.1328 7.11657 14.8243C7.28006 9.75616 11.348 5.69782 16.4065 5.53433H32.8899C38.1985 5.36123 42.6319 9.52536 42.805 14.8243C42.9781 20.1328 38.8139 24.5662 33.515 24.7393C33.3035 24.7489 33.0919 24.7489 32.8899 24.7393ZM141.253 29.9709H158.862L162.199 24.7489H141.648C136.339 24.922 131.906 20.7579 131.733 15.459C131.56 10.1505 135.724 5.71706 141.023 5.54395C141.225 5.53433 141.436 5.53433 141.638 5.54395H158.372L161.747 0.302728H141.253C133.06 0.0911558 126.241 6.56335 126.03 14.757C125.818 22.9506 132.29 29.769 140.484 29.9805C140.734 29.9709 140.994 29.9709 141.253 29.9709ZM211.034 24.7393C206.735 24.7393 202.956 21.8831 201.782 17.7478H226.171L229.527 12.5162H201.792C202.956 8.38094 206.735 5.5151 211.043 5.52472H227.786L231.133 0.283496H210.659C202.465 0.495068 195.993 7.31347 196.205 15.5071C196.406 23.4026 202.763 29.7594 210.659 29.9613H228.267L231.604 24.7297H211.024" fill="#2F2F2F" fill-opacity="0.5"/>
</svg>
