<svg width="94" height="30" viewBox="0 0 94 30" fill="none" xmlns="http://www.w3.org/2000/svg">
<path d="M35.4147 0.530186L23.2552 29.5433H15.3218L9.34269 6.38932C8.97504 4.9613 8.66157 4.44272 7.55476 3.83514C5.74749 2.85991 2.77148 1.94272 0.147644 1.36997L0.329533 0.526318H13.0966C14.7258 0.526318 16.1887 1.61378 16.5563 3.48297L19.7181 20.2748L27.5277 0.526318L35.4147 0.530186ZM66.4944 20.0658C66.5292 12.4149 55.9062 11.9969 55.9836 8.57198C56.0029 7.52709 56.9936 6.42028 59.1647 6.14164C60.2405 5.99845 63.2049 5.89396 66.5679 7.43421L67.8837 1.28483C66.0764 0.626938 63.7506 0 60.8636 0C53.4448 0 48.2243 3.9435 48.1817 9.58978C48.1314 13.7655 51.9085 16.0952 54.7529 17.4845C57.6747 18.9087 58.6538 19.8142 58.6422 21.0913C58.6229 23.0379 56.3086 23.8893 54.1531 23.928C50.3798 23.9861 48.1894 22.9063 46.4402 22.0937L45.0818 28.4559C46.8311 29.2608 50.0741 29.9574 53.4294 30C61.3125 30 66.4712 26.0952 66.4944 20.0658ZM86.0842 29.5395H93.0269L86.9704 0.526318H80.5617C79.1221 0.526318 77.9069 1.3661 77.3651 2.6548L66.1113 29.5395H73.9905L75.554 25.2051H85.1825L86.0842 29.5395ZM77.7096 19.2608L81.6608 8.36687L83.9325 19.2608H77.7096ZM46.1383 0.530186L39.9271 29.5433H32.4232L38.6345 0.530186H46.1383Z" fill="#2F2F2F" fill-opacity="0.5"/>
</svg>
