<svg width="46" height="30" viewBox="0 0 46 30" fill="none" xmlns="http://www.w3.org/2000/svg">
<path d="M32.4002 0C28.6984 0 25.8054 2.78764 23.1852 6.32955C19.5849 1.74556 16.5753 0 12.9732 0C5.62794 0 0 9.55734 0 19.6752C0 26.0066 3.06226 30 8.19362 30C11.886 30 14.542 28.2601 19.2633 20.0063C19.2633 20.0063 21.2308 16.5302 22.5851 14.1376C23.0591 14.9031 23.5576 15.727 24.0843 16.613L26.2982 20.3373C30.6113 27.5528 33.0134 30 37.3679 30C42.3657 30 45.1477 25.9521 45.1477 19.489C45.1439 8.89523 39.3899 0 32.4002 0ZM15.6612 17.7716C11.8333 23.772 10.5091 25.1169 8.37795 25.1169C6.18471 25.1169 4.88118 23.1908 4.88118 19.758C4.88118 12.4127 8.54348 4.90376 12.9093 4.90376C15.2737 4.90376 17.2487 6.26936 20.2753 10.6013C17.403 15.0066 15.6612 17.7716 15.6612 17.7716ZM37.4676 25.1169C35.2875 25.1169 34.2454 23.678 30.1072 17.0174L27.4607 12.6027C26.744 11.4383 26.0574 10.368 25.3953 9.38617C27.7804 5.70506 29.7479 3.86921 32.0898 3.86921C36.9522 3.86921 40.8421 11.0283 40.8421 19.8201C40.8402 23.172 39.7436 25.1169 37.4676 25.1169Z" fill="#2F2F2F" fill-opacity="0.5"/>
</svg>
