<svg width="75" height="30" viewBox="0 0 75 30" fill="none" xmlns="http://www.w3.org/2000/svg">
<path d="M47.3696 15.8972C43.9709 16.0156 41.8618 16.6386 41.8618 18.866C41.8618 20.3115 43.0332 21.8754 45.9646 21.8754C49.9086 21.8754 51.9802 19.7258 51.9802 16.2118V15.8224C50.6126 15.8193 48.8961 15.8598 47.3696 15.8972ZM55.731 20.5483C55.731 21.6417 55.7715 22.6978 55.8494 23.6729H52.3727C52.2949 22.8909 52.2544 22.0716 52.2544 21.3302C50.379 23.6355 48.1142 24.299 45.0269 24.299C40.379 24.299 37.9179 21.8785 37.9179 19.0249C37.9179 14.9221 41.2762 13.5171 47.0986 13.3614C48.6998 13.3209 50.4973 13.3209 51.9802 13.3209V12.9314C51.9802 10.1962 50.2232 9.0654 47.1765 9.0654C44.9117 9.0654 43.2699 10.0031 43.0737 11.6043H39.1297C39.5597 7.57942 43.7777 6.56384 47.488 6.56384C51.9397 6.56384 55.6905 8.16509 55.6905 12.8536V20.5483H55.731Z" fill="#2F2F2F" fill-opacity="0.5"/>
<path d="M14.949 13.9066C14.7933 10.3894 12.2917 9.10282 9.55963 9.10282C6.66866 9.06232 4.32598 10.5483 3.93346 13.9066H14.949ZM3.85558 16.405C4.05184 19.8037 6.39452 21.8349 9.63751 21.8349C11.8649 21.8349 13.8556 20.9377 14.5191 18.9439H18.3852C17.6032 22.9284 13.3447 24.296 9.67489 24.296C2.99576 24.296 0.0269165 20.6262 0.0269165 15.6636C0.0269165 10.1963 3.07365 6.60126 9.71539 6.60126C14.9895 6.60126 18.8961 9.37384 18.8961 15.3894V16.405H3.85558Z" fill="#2F2F2F" fill-opacity="0.5"/>
<path d="M28.5036 21.7196C31.9802 21.7196 34.3634 19.2181 34.3634 15.4299C34.3634 11.6417 31.9802 9.14019 28.5036 9.14019C25.0269 9.14019 22.6438 11.6417 22.6438 15.4299C22.6438 19.2181 25.0269 21.7196 28.5036 21.7196ZM18.893 0H22.6438V9.41433C24.4818 7.22741 27.0207 6.60125 29.5191 6.60125C33.6998 6.60125 38.3478 9.41433 38.3478 15.5078C38.3478 20.5857 34.6749 24.2959 29.4818 24.2959C26.7466 24.2959 24.2076 23.3209 22.6064 21.405C22.6064 22.1869 22.5659 22.9688 22.488 23.7103H18.7777C18.8556 22.5389 18.8961 21.053 18.8961 19.8442L18.893 0Z" fill="#2F2F2F" fill-opacity="0.5"/>
<path d="M74.7933 7.22742L63.192 30H59.0114L62.3322 23.6729L53.6219 7.22742H57.9958L64.4008 20.0779L70.8057 7.22742H74.7933Z" fill="#2F2F2F" fill-opacity="0.5"/>
</svg>
